<svg width="20" height="20" viewBox="0 0 20 20" fill="none" xmlns="http://www.w3.org/2000/svg">
<path fill-rule="evenodd" clip-rule="evenodd" d="M2.00654 8.4925L2.43286 14.6875C2.53124 16.2325 3.44127 17.5 5.70403 17.5H14.296C16.5587 17.5 17.4606 16.2325 17.5671 14.6875L17.9935 8.4925C18.1082 6.8725 16.6981 5.5 14.9191 5.5C14.4189 5.5 13.9598 5.2375 13.7303 4.8325L13.14 3.745C12.7629 3.0625 11.7791 2.5 10.9428 2.5H9.06538C8.22094 2.5 7.23713 3.0625 6.86001 3.745L6.26972 4.8325C6.04016 5.2375 5.58105 5.5 5.08095 5.5C3.30189 5.5 1.89176 6.8725 2.00654 8.4925ZM7.90145 4.36603L7.31431 5.44773L7.30305 5.46802C6.83725 6.28982 5.96388 6.75 5.08095 6.75C3.82783 6.75 3.15168 7.67204 3.20329 8.4005L3.20347 8.40312L3.63025 14.6048C3.66498 15.1503 3.83228 15.5219 4.07719 15.7609C4.31903 15.9969 4.78655 16.25 5.70403 16.25H14.296C15.2131 16.25 15.6781 15.9971 15.9189 15.7617C16.1637 15.5224 16.3322 15.1488 16.3702 14.5981L16.7967 8.4005C16.8483 7.67204 16.1722 6.75 14.9191 6.75C14.0361 6.75 13.1627 6.28982 12.6969 5.46802L12.6857 5.44773L12.0986 4.36603C12.0497 4.27962 11.9027 4.11382 11.6389 3.96392C11.3791 3.81627 11.1204 3.75 10.9428 3.75H9.06538C8.88194 3.75 8.62078 3.81731 8.36096 3.96456C8.09683 4.11426 7.95013 4.27986 7.90145 4.36603Z" fill="#3D4657"/>
<path fill-rule="evenodd" clip-rule="evenodd" d="M8.2 7.29167C8.2 6.94649 8.46863 6.66667 8.8 6.66667H11.2C11.5314 6.66667 11.8 6.94649 11.8 7.29167C11.8 7.63684 11.5314 7.91667 11.2 7.91667H8.8C8.46863 7.91667 8.2 7.63684 8.2 7.29167Z" fill="#3D4657"/>
<path fill-rule="evenodd" clip-rule="evenodd" d="M10 13.75C10.7693 13.75 11.4 13.093 11.4 12.2917C11.4 11.4904 10.7693 10.8333 10 10.8333C9.23074 10.8333 8.6 11.4904 8.6 12.2917C8.6 13.093 9.23074 13.75 10 13.75ZM12.6 12.2917C12.6 13.7833 11.432 15 10 15C8.568 15 7.4 13.7833 7.4 12.2917C7.4 10.8 8.568 9.58333 10 9.58333C11.432 9.58333 12.6 10.8 12.6 12.2917Z" fill="#3D4657"/>
</svg>
