<svg width="20" height="20" viewBox="0 0 20 20" fill="none" xmlns="http://www.w3.org/2000/svg">
<path fill-rule="evenodd" clip-rule="evenodd" d="M3.23077 7.18603C3.23077 6.26973 3.51449 5.53832 3.97444 5.04177C4.43002 4.54995 5.10301 4.23966 5.98437 4.23966H14.022C14.9073 4.23966 15.578 4.55014 16.0305 5.0408C16.4879 5.53663 16.7692 6.26801 16.7692 7.18603V12.8212C16.7692 13.7351 16.4882 14.4644 16.0303 14.9594C15.5769 15.4494 14.9044 15.7603 14.0149 15.7603H5.98437C5.09891 15.7603 4.42613 15.4497 3.97177 14.9591C3.5129 14.4637 3.23077 13.7342 3.23077 12.8212V7.18603ZM5.98437 3C4.79803 3 3.78653 3.42747 3.07454 4.19608C2.36693 4.95997 2 6.01165 2 7.18603V12.8212C2 13.9915 2.36491 15.0416 3.07182 15.8048C3.78323 16.5728 4.79494 17 5.98437 17H14.0149C15.2074 17 16.2197 16.5731 16.9307 15.8045C17.6372 15.0408 18 13.9908 18 12.8212V7.18603C18 6.01337 17.6375 4.96165 16.9323 4.19706C16.2222 3.42729 15.2116 3 14.022 3H5.98437ZM5.86398 13.319C5.86398 13.0785 5.95765 12.7996 6.20292 12.5758C6.44669 12.3533 6.89616 12.1361 7.6907 12.1361C8.48644 12.1361 8.93616 12.3522 9.17969 12.5733C9.42412 12.7952 9.51741 13.0718 9.51741 13.3118C9.51741 13.6542 9.79294 13.9317 10.1328 13.9317C10.4727 13.9317 10.7482 13.6542 10.7482 13.3118C10.7482 12.7485 10.527 12.1274 10.0036 11.6524C9.47934 11.1765 8.70806 10.8964 7.6907 10.8964C6.67222 10.8964 5.90063 11.1789 5.37661 11.6571C4.85408 12.1338 4.63321 12.7562 4.63321 13.319C4.63321 13.6614 4.90872 13.9389 5.2486 13.9389C5.58846 13.9389 5.86398 13.6614 5.86398 13.319ZM7.68996 7.29681C7.16842 7.29681 6.74539 7.72289 6.74539 8.2482C6.74539 8.77352 7.16842 9.19955 7.68996 9.19955C8.21149 9.19955 8.63455 8.77352 8.63455 8.2482C8.63455 7.72289 8.21149 7.29681 7.68996 7.29681ZM5.51462 8.2482C5.51462 7.03825 6.48869 6.05715 7.68996 6.05715C8.8912 6.05715 9.86532 7.03825 9.86532 8.2482C9.86532 9.45814 8.8912 10.4392 7.68996 10.4392C6.48869 10.4392 5.51462 9.45814 5.51462 8.2482ZM11.7494 8.0136C11.4096 8.0089 11.1303 8.28257 11.1257 8.62489C11.121 8.96712 11.3927 9.24844 11.7325 9.25315L14.5817 9.29257C14.9216 9.2972 15.2009 9.02357 15.2056 8.68125C15.2102 8.33899 14.9385 8.0577 14.5986 8.053L11.7494 8.0136ZM12.809 11.073C12.4692 11.073 12.1936 11.3505 12.1936 11.6928C12.1936 12.0351 12.4692 12.3126 12.809 12.3126H14.5901C14.93 12.3126 15.2055 12.0351 15.2055 11.6928C15.2055 11.3505 14.93 11.073 14.5901 11.073H12.809Z" fill="#3D4657"/>
</svg>
