<svg width="311" height="218" viewBox="0 0 311 218" fill="none" xmlns="http://www.w3.org/2000/svg">
<path d="M154.907 168.294C154.901 168.629 154.797 168.956 154.607 169.232C154.416 169.508 154.149 169.722 153.838 169.847C153.527 169.971 153.186 170.002 152.857 169.933C152.529 169.865 152.228 169.702 151.993 169.463C151.757 169.224 151.597 168.922 151.533 168.593C151.469 168.264 151.503 167.923 151.631 167.613C151.76 167.304 151.977 167.039 152.256 166.852C152.534 166.665 152.862 166.565 153.197 166.564C153.424 166.562 153.649 166.605 153.858 166.692C154.068 166.778 154.258 166.906 154.417 167.067C154.577 167.229 154.702 167.421 154.786 167.631C154.87 167.842 154.911 168.067 154.907 168.294Z" fill="url(#paint0_radial_19_5887)"/>
<path d="M159.393 134.838C160.334 134.838 161.096 134.076 161.096 133.135C161.096 132.195 160.334 131.433 159.393 131.433C158.453 131.433 157.691 132.195 157.691 133.135C157.691 134.076 158.453 134.838 159.393 134.838Z" fill="url(#paint1_radial_19_5887)"/>
<path d="M224.538 16.0699C224.075 16.0217 223.609 15.9984 223.143 16.0001H161.836C154.082 16.0001 146.685 22.2808 145.317 30.041L119.699 175.203C119.413 176.868 119.375 178.566 119.587 180.241C119.587 180.241 121.632 195.162 136.036 195.029H197.371C205.124 195.029 212.521 188.748 213.889 180.981L239.486 35.8263C239.576 35.2994 239.639 34.7684 239.675 34.2352C242.627 16.9771 224.538 16.0699 224.538 16.0699Z" fill="url(#paint2_linear_19_5887)"/>
<path d="M192.799 188.023H132.197C124.521 188.023 119.412 181.805 120.759 174.136L146.064 30.6628C147.411 22.9863 154.724 16.7754 162.394 16.7754H222.982C230.658 16.7754 235.767 22.9933 234.42 30.6628L209.129 174.136C207.782 181.805 200.469 188.023 192.799 188.023Z" fill="white"/>
<path d="M231.664 30.9343L206.492 173.709C205.355 180.172 199.193 185.413 192.73 185.413H133.189C126.727 185.413 122.414 180.172 123.552 173.709L148.73 30.9343C149.896 24.3116 156.218 18.952 162.848 18.952H167.614C168.227 18.9278 168.826 19.1268 169.303 19.5119C169.779 19.897 170.099 20.4421 170.204 21.0456L171.104 25.7841C171.213 26.3156 171.507 26.7913 171.934 27.1262C172.36 27.4611 172.892 27.6334 173.435 27.6125H208.118C208.739 27.5906 209.344 27.4056 209.87 27.0761C210.397 26.7465 210.828 26.2841 211.119 25.7352L213.68 21.0037C214 20.3927 214.476 19.8772 215.059 19.5095C215.643 19.1418 216.313 18.935 217.002 18.9102H221.768C228.412 18.952 232.836 24.3116 231.664 30.9343Z" fill="url(#paint3_linear_19_5887)"/>
<path d="M199.952 24.2H180.447C180.28 24.2053 180.113 24.1721 179.96 24.1029C179.808 24.0338 179.673 23.9305 179.567 23.8011C179.46 23.6717 179.385 23.5195 179.346 23.3564C179.308 23.1933 179.307 23.0235 179.345 22.8601C179.421 22.4936 179.617 22.1632 179.903 21.9217C180.189 21.6801 180.548 21.5412 180.922 21.5272H200.399C200.566 21.5207 200.733 21.5529 200.885 21.6212C201.038 21.6896 201.173 21.7922 201.28 21.9211C201.386 22.05 201.462 22.2018 201.5 22.3647C201.539 22.5275 201.539 22.697 201.502 22.8601C201.429 23.2239 201.238 23.5532 200.957 23.7959C200.676 24.0385 200.323 24.1807 199.952 24.2Z" fill="url(#paint4_linear_19_5887)"/>
<path d="M206.269 22.8601C206.197 23.2278 206.002 23.5603 205.717 23.8036C205.432 24.0468 205.073 24.1865 204.699 24.2C204.531 24.2067 204.364 24.1744 204.21 24.1057C204.057 24.037 203.921 23.9337 203.815 23.8039C203.708 23.6742 203.633 23.5214 203.595 23.3577C203.557 23.1939 203.557 23.0236 203.596 22.8601C203.671 22.4942 203.866 22.164 204.151 21.9223C204.436 21.6806 204.793 21.5415 205.166 21.5272C205.334 21.5207 205.5 21.5529 205.653 21.6212C205.806 21.6896 205.941 21.7922 206.047 21.9211C206.154 22.05 206.229 22.2018 206.268 22.3647C206.306 22.5275 206.307 22.697 206.269 22.8601Z" fill="url(#paint5_linear_19_5887)"/>
<path d="M234.267 50.5997L234.302 50.4043H233.548C233.102 50.4195 232.675 50.585 232.335 50.8739C231.996 51.1627 231.764 51.558 231.678 51.9954L228.146 72.024C228.014 72.7847 228.035 74.2292 229.542 74.4246H230.38L230.212 73.6151L230.247 73.4197C230.525 73.2887 230.769 73.0941 230.958 72.8517C231.147 72.6092 231.276 72.3257 231.336 72.024L234.846 51.9954C234.908 51.7314 234.886 51.4545 234.782 51.204C234.678 50.9534 234.498 50.742 234.267 50.5997Z" fill="url(#paint6_linear_19_5887)"/>
<path d="M230.254 74.4037C228.9 74.2083 228.739 72.9033 228.893 72.024L232.424 51.9954C232.513 51.558 232.747 51.1633 233.087 50.8747C233.428 50.5861 233.855 50.4204 234.301 50.4043C235.181 50.4043 235.816 51.9047 235.662 52.784L232.124 72.8126C231.971 73.6919 231.175 74.5712 230.254 74.4037Z" fill="#FDFBF9"/>
<path d="M210.684 38.2451H168.958C165.874 38.2451 162.983 40.7104 162.501 43.7515L155.778 86.1999C155.297 89.2409 157.406 91.7062 160.491 91.7062H202.217C205.301 91.7062 208.192 89.2409 208.674 86.1999L215.397 43.7515C215.878 40.7104 213.769 38.2451 210.684 38.2451Z" fill="#669AE2"/>
<path d="M208.54 38.207H166.814C163.73 38.207 160.839 40.6723 160.357 43.7134L153.634 86.1618C153.153 89.2029 155.262 91.6682 158.346 91.6682H200.073C203.157 91.6682 206.048 89.2029 206.53 86.1618L213.253 43.7134C213.734 40.6723 211.625 38.207 208.54 38.207Z" fill="url(#paint7_linear_19_5887)"/>
<path d="M208.205 52.7418H206.679L207.273 48.9878C207.438 47.9435 207.178 46.9424 206.551 46.204C205.924 45.4656 204.982 45.0502 203.93 45.049H200.101L200.34 43.54H204.175C205.63 43.5412 206.934 44.1155 207.801 45.1369C208.668 46.1583 209.027 47.5433 208.799 48.9878L208.205 52.7418Z" fill="white"/>
<path d="M165.735 53.5526H164.229L164.952 48.9843C165.187 47.5116 165.984 46.0997 167.168 45.0585C168.351 44.0173 169.825 43.4319 171.266 43.4307H175.154L174.911 44.969H171.023C169.981 44.9698 168.915 45.3931 168.06 46.1459C167.204 46.8988 166.628 47.9196 166.459 48.9843L165.735 53.5526Z" fill="white"/>
<path d="M168.639 86.5968H164.531C163.063 86.5956 161.755 85.9716 160.893 84.862C160.031 83.7523 159.685 82.2477 159.932 80.6782L160.653 76.126H162.188L161.467 80.6782C161.288 81.8127 161.538 82.9004 162.161 83.7026C162.784 84.5049 163.73 84.9561 164.79 84.9574H168.898L168.639 86.5968Z" fill="white"/>
<path d="M196.828 86.4865H192.771L193.027 84.8716H197.084C198.155 84.8682 199.252 84.4228 200.134 83.6329C201.015 82.8429 201.611 81.7727 201.789 80.6563L202.524 76.0156H204.073L203.338 80.6563C203.092 82.2011 202.269 83.6823 201.049 84.7752C199.828 85.8682 198.31 86.4835 196.828 86.4865Z" fill="white"/>
<path d="M189.571 62.2876L188.676 74.0799L188.671 76.8703C188.671 76.8703 186.529 78.3851 182.853 78.3224C180.337 78.2819 178.754 77.9666 177.76 77.6398C176.945 77.3543 175.986 76.9376 177.13 75.4868C178.792 73.3228 179.096 71.7767 179.096 71.7767L180.438 64.8866L189.571 62.2876Z" fill="#F2C6B4"/>
<path d="M187.412 68.2869C185.674 69.7425 183.524 70.6638 182.235 70.9532C180.428 71.3674 179.278 71.2979 179.278 71.2979L180.13 65.6827L189.237 62.2115L189.332 63.0637L189.15 64.3893C189.133 64.4342 189.029 66.901 187.412 68.2869Z" fill="url(#paint8_linear_19_5887)"/>
<path d="M187.13 60.1751C187.13 60.1751 184.969 57.1323 183.386 56.477C180.366 55.1195 177.199 55.2599 177.199 55.2599L177.96 53.6215L186.093 53.2002L188.482 58.2558L187.13 60.1751Z" fill="url(#paint9_linear_19_5887)"/>
<path d="M190.285 61.7244C189.852 61.7244 189.556 61.3774 189.624 60.9494C189.692 60.5214 190.612 59.3994 191.045 59.3994C191.478 59.3994 191.26 60.5214 191.192 60.9494C191.124 61.3774 190.718 61.7244 190.285 61.7244Z" fill="url(#paint10_linear_19_5887)"/>
<path d="M189.619 58.2572C189.962 58.0777 190.331 57.9746 190.705 57.9746C192.004 57.9746 193.379 58.4143 193.141 59.9123C192.904 61.4104 191.145 63.3991 189.846 63.3992C189.386 63.3992 188.984 63.2454 188.663 62.9825C188.522 63.288 188.379 63.6091 188.262 63.9065C187.868 64.8777 186.826 65.7101 185.12 66.4963C183.104 67.4215 180.17 68.3931 178.709 67.9306C177.249 67.4679 176.204 65.8949 176.143 63.2583C176.145 61.7319 176.433 59.003 176.741 57.0602C176.821 56.5514 177.008 55.6723 177.387 54.7935C177.788 53.7758 179.522 51.6009 179.522 51.6009L187.239 51L189.619 58.2572Z" fill="url(#paint11_linear_19_5887)"/>
<path d="M182.526 59.9766C182.16 59.9766 181.908 59.6895 181.964 59.3355C182.02 58.9814 182.363 58.6943 182.73 58.6943C183.096 58.6943 183.348 58.9814 183.292 59.3355C183.236 59.6895 182.893 59.9766 182.526 59.9766Z" fill="#4F2B23"/>
<path d="M177.653 59.6104C177.286 59.6104 177.035 59.3233 177.091 58.9693C177.147 58.6152 177.489 58.3281 177.856 58.3281C178.223 58.3281 178.474 58.6152 178.418 58.9693C178.362 59.3233 178.019 59.6104 177.653 59.6104Z" fill="#4F2B23"/>
<path d="M179.116 63.2637C179.262 63.2637 179.423 63.1701 179.501 62.9828C179.579 62.7956 179.463 62.6084 179.268 62.6084C179.268 62.6084 178.749 62.5148 178.767 62.0935C178.785 61.6722 179.408 60.502 179.747 59.8935C179.874 59.7063 179.806 59.5191 179.619 59.4723C179.44 59.3787 179.23 59.4723 179.152 59.6595C179.025 59.8467 178.141 61.4382 178.071 62.1871C178.009 62.8892 178.63 63.2637 179.011 63.3105C179.067 63.2637 179.116 63.2637 179.116 63.2637Z" fill="#B4603F"/>
<path d="M186.104 53.7676C186.104 53.7676 185.938 55.4137 186.655 56.877C187.371 58.3403 187.466 58.3403 187.339 58.8432L187.072 61.1296C187.018 61.7698 187.689 61.724 187.926 61.724C187.973 61.724 188.653 59.5291 188.653 59.5291C188.653 59.5291 189.096 57.9287 191.161 58.0659C192.663 58.1573 193.001 59.6206 193.001 59.6206C193.001 59.6206 194.674 55.6424 195.151 54.7278C195.918 53.1731 195.21 52.2586 194.545 51.6641C193.874 51.1154 193.108 51.1611 193.108 51.1611C193.108 51.1611 193.802 48.8748 191.382 47.6859C190.196 47.0915 189.131 47.2286 188.096 47.1829C187.06 47.1372 186.086 47 185.232 47C183.131 47.0915 182.334 48.2346 182.334 48.2346C182.334 48.2346 178.524 46.5427 176.532 48.6462C174.546 50.7039 176.004 53.1731 178.226 53.8133C179.846 54.362 182.283 54.5449 186.104 53.7676Z" fill="#321011"/>
<path d="M178.225 64.755C179.868 65.3277 181.147 64.5045 181.652 63.963C181.784 63.8175 181.789 63.6203 181.644 63.5107C181.498 63.4012 181.285 63.4137 181.153 63.5593C181.13 63.5999 180.121 64.6829 178.562 64.1446C178.394 64.0758 178.178 64.1869 178.11 64.309C177.998 64.5124 178.057 64.6861 178.225 64.755Z" fill="#CF7653"/>
<path d="M184.483 57.4993C184.786 57.2767 184.869 56.8672 184.744 56.6739C184.701 56.6264 184.043 55.5108 182.318 55.7805C182.128 55.7936 181.787 55.9179 181.742 56.4257C181.716 56.7303 181.893 56.8696 182.083 56.8565C183.375 56.6669 183.822 57.4942 183.865 57.5417C183.999 57.6335 184.28 57.6647 184.483 57.4993ZM177.304 56.9321C177.352 56.9288 177.447 56.9223 177.499 56.8683C177.906 56.5375 178.458 56.7015 178.506 56.6982C178.692 56.7359 178.891 56.6214 178.951 56.4658C179.13 56.0498 178.914 55.8122 178.776 55.7712C178.728 55.7745 177.9 55.5286 177.19 56.082C177.038 56.1933 176.869 56.5077 177.076 56.8468C177.071 56.8976 177.209 56.9386 177.304 56.9321Z" fill="#4F2B23"/>
<path d="M162.346 81.7709C166.523 84.2975 192.472 85.0928 200.275 81.8255C200.665 79.3881 201.281 74.5963 198.338 72.3528C196.397 70.8645 192.709 68.793 190.119 68.793C189.884 71.2638 176.957 72.1693 177.525 68.1504C175.674 68.2884 174.678 68.2322 172.863 68.522C165.179 69.6466 164.399 76.2627 162.346 81.7709Z" fill="url(#paint12_linear_19_5887)"/>
<path d="M95.3035 102.638L93.1913 122.696L92.3426 127.434C92.3426 127.434 95.487 130.091 101.701 130.131C105.953 130.162 108.716 129.69 110.491 129.174C111.952 128.722 113.696 128.052 112.215 125.544C110.078 121.803 110.041 119.166 110.041 119.166L109.895 107.414L95.3035 102.638Z" fill="#F2C6B4"/>
<path d="M97.0977 112.911C99.5798 115.451 102.92 117.101 105.003 117.643C107.921 118.418 109.881 118.346 109.881 118.346L110.167 108.778L95.8885 102.522L95.4666 103.966L95.3655 106.224C95.3809 106.301 94.7982 110.493 97.0977 112.911Z" fill="url(#paint13_linear_19_5887)"/>
<path d="M112.272 112.21C105.991 118.942 96.3443 116.52 92.3061 114.468C73.1649 118.827 69.6566 129.66 67.4705 137.065C65.2843 144.469 59.5051 169.286 65.2659 172.845C69.8746 175.692 73.5534 174.604 74.8167 173.704C74.924 174.389 73.2536 176.604 72.3898 190.715C96.2975 200.973 128.142 196.236 132.846 194.632C132.991 193.023 128.99 153.577 127.193 137.875C135.192 140.96 152.497 146.131 157.72 142.141C164.25 137.154 167.566 117.183 167.013 112.066C165.319 108.366 160.976 105.948 154.396 105.863C150.889 108.791 146.883 118.025 145.318 122.276C143.81 122.141 139.441 121.139 134.028 118.22C123.467 111.696 119.033 110.284 112.272 112.21Z" fill="url(#paint14_linear_19_5887)"/>
<path opacity="0.6" d="M119.5 84.8184L165.499 82.3181L166.866 90.0296C160.787 92.9694 140.275 107.531 124 112.318C116.237 109.767 118.315 89.7774 119.5 84.8184Z" fill="url(#paint15_linear_19_5887)"/>
<path d="M94.4255 95.2163C93.8467 95.0204 93.2283 94.9687 92.6101 95.0924C90.4638 95.5216 88.2231 96.734 88.7236 99.2378C89.2245 101.742 92.2775 104.59 94.4239 104.161C95.1832 104.009 95.8398 103.612 96.3506 103.053C96.6059 103.532 96.8635 104.037 97.0782 104.51C97.799 106.055 99.5823 107.146 102.459 107.938C105.858 108.866 110.778 109.572 113.158 108.291C115.539 107.011 117.152 103.954 117.062 99.3879C116.948 96.757 116.273 92.1467 115.624 88.899C115.454 88.0485 115.081 86.5954 114.391 85.2057C113.658 83.5909 110.656 80.4365 110.63 80.4088L97.8327 81.9227L94.4255 95.2163Z" fill="url(#paint16_linear_19_5887)"/>
<path d="M107.04 95.6369C107.646 95.5157 108.041 94.9376 107.923 94.3457C107.804 93.7538 107.217 93.3723 106.611 93.4935C106.005 93.6146 105.61 94.1927 105.728 94.7846C105.847 95.3765 106.434 95.7581 107.04 95.6369Z" fill="#4F2B23"/>
<path d="M115.068 93.3966C115.674 93.2755 116.069 92.6974 115.951 92.1055C115.832 91.5136 115.245 91.132 114.639 91.2532C114.033 91.3744 113.638 91.9525 113.757 92.5444C113.875 93.1363 114.462 93.5178 115.068 93.3966Z" fill="#4F2B23"/>
<path d="M113.124 100.341C112.883 100.389 112.611 100.281 112.468 99.9841C112.325 99.6872 112.503 99.3261 112.825 99.2618C112.825 99.2618 113.677 98.9285 113.617 98.2083C113.556 97.488 112.442 95.6766 111.837 94.7397C111.613 94.4589 111.712 94.1138 112.017 93.9713C112.307 93.7505 112.66 93.8427 112.803 94.1396C113.026 94.4205 114.603 96.8718 114.773 98.1398C114.927 99.3295 113.928 100.18 113.301 100.387C113.205 100.325 113.124 100.341 113.124 100.341Z" fill="#B4603F"/>
<path d="M100.236 86.4719C100.236 86.4719 100.629 89.255 99.5512 92.0144C98.4731 94.7739 98.3164 94.8052 98.5629 95.6304L99.1706 99.4836C99.3063 100.569 98.1939 100.712 97.802 100.791C97.7237 100.806 96.4413 97.2471 96.4413 97.2471C96.4413 97.2471 95.5928 94.6345 92.1905 95.5535C89.7134 96.2079 89.2622 98.842 89.2622 98.842C89.2622 98.842 86.2081 92.5368 85.3538 91.1178C83.972 88.6913 85.0768 86.8805 86.1319 85.636C87.2023 84.468 88.4714 84.2936 88.4714 84.2936C88.4714 84.2936 87.1585 80.5815 91.0711 77.7321C92.9882 76.3152 94.7581 76.1997 96.4669 75.7784C98.1756 75.3572 99.7755 74.7987 101.186 74.5166C104.665 73.9798 106.066 75.687 106.066 75.687C106.066 75.687 112.239 71.5109 115.685 74.4784C119.116 77.3695 116.886 82.1083 113.26 83.9465C110.622 85.428 106.608 86.5488 100.236 86.4719Z" fill="#321011"/>
<path d="M111.228 103.495C108.182 103.953 106.517 102.237 105.98 101.206C105.842 100.93 105.943 100.606 106.246 100.469C106.549 100.333 106.896 100.415 107.034 100.691C107.048 100.764 108.121 102.827 111.009 102.401C111.327 102.337 111.624 102.581 111.667 102.8C111.74 103.165 111.546 103.432 111.228 103.495Z" fill="#CF7653"/>
<path d="M103.382 92.7713C102.846 92.5244 102.632 91.8593 102.798 91.4723C102.859 91.3716 103.713 89.1655 106.569 88.8598C106.88 88.7975 107.46 88.8586 107.63 89.7095C107.732 90.2199 107.471 90.5375 107.16 90.5998C105.023 90.8503 104.455 92.4681 104.394 92.5687C104.195 92.7856 103.744 92.9642 103.382 92.7713ZM114.942 88.6009C114.864 88.6165 114.708 88.6476 114.613 88.5781C113.888 88.1923 113.021 88.7196 112.944 88.7351C112.649 88.8825 112.303 88.7747 112.174 88.535C111.805 87.9011 112.109 87.3978 112.326 87.266C112.404 87.2504 113.704 86.4595 114.964 87.0922C115.232 87.2156 115.568 87.6794 115.297 88.3528C115.314 88.4379 115.098 88.5697 114.942 88.6009Z" fill="#4F2B23"/>
<path d="M169.784 97.8759L169.739 97.7566C171.061 95.8535 169.571 95.8425 168.544 95.2345C168.726 95.0066 168.857 94.7494 168.928 94.4803C168.999 94.2113 169.008 93.9369 168.954 93.6759C168.406 91.286 164.829 94.458 163.944 95.2023C162.825 96.1437 161.882 97.1196 160.631 97.9166C158.069 99.5499 158.555 94.3039 157.29 94.3585C156.29 94.4016 156.227 96.6271 156.263 97.5372C156.297 98.2724 156.339 98.9992 156.296 99.7272C156.226 100.393 156.316 101.05 156.56 101.65C156.755 102.081 156.991 102.491 157.265 102.877C157.396 103.026 157.481 103.207 157.516 103.403C157.619 105.14 156.953 107.45 156.706 109.001L164.306 112.213C164.757 111.64 167.915 104.175 168.282 103.646C168.534 103.279 168.851 102.959 169.122 102.608C169.639 101.949 170.257 101.309 170.73 100.623C171.132 100.036 171.438 99.2934 171.208 98.641C171.17 98.5284 171.116 98.422 171.048 98.3244C170.782 97.9309 170.312 97.6592 169.784 97.8759Z" fill="#FEDCBE"/>
<path fill-rule="evenodd" clip-rule="evenodd" d="M165.837 83.4794C165.722 83.0961 165.461 82.773 165.11 82.579C164.759 82.3849 164.345 82.3353 163.958 82.4408C161.024 83.2435 154.376 85.0486 151.319 85.8885C151.115 85.9427 150.925 86.0384 150.76 86.1696C150.595 86.3007 150.459 86.4645 150.361 86.6506C150.263 86.8367 150.204 87.0409 150.188 87.2505C150.173 87.4602 150.2 87.6708 150.269 87.8694C151.09 92.9708 152.567 105.851 154.068 110.132C154.195 110.501 154.459 110.807 154.805 110.988C155.151 111.17 155.554 111.212 155.931 111.107C158.686 110.355 164.827 108.661 167.691 107.873C167.89 107.819 168.075 107.725 168.237 107.598C168.398 107.471 168.533 107.313 168.632 107.133C168.731 106.953 168.793 106.755 168.814 106.551C168.835 106.347 168.815 106.141 168.755 105.945C168.349 101.29 166.77 88.8639 165.837 83.4794Z" fill="url(#paint17_linear_19_5887)"/>
<path d="M96.9404 138.682C96.6109 140.443 94.887 143.519 94.0662 144.838C94.2866 146.344 99.0494 147.353 102.26 147.072C103.285 146.194 104.396 144.474 106.054 142.901C107.625 142.173 108.89 140.783 109.523 140.088C110.155 139.393 111.055 138.029 110.542 137.414C110.019 136.788 109.082 137.076 107.903 137.623C108.689 137.258 110.477 136.041 109.616 135.055C108.754 134.068 107.22 135.125 106.828 135.307C107.853 134.43 112.843 130.793 111.816 129.562C110.963 128.54 103.697 134.144 104.184 133.717C104.893 133.098 109.045 128.744 108.069 126.949C107.173 125.302 101.624 132.16 100.071 133.627C98.1867 135.407 97.3523 136.481 96.9404 138.682Z" fill="url(#paint18_linear_19_5887)"/>
<path d="M95.917 137.596C82.872 142.909 77.0916 146.544 72.4434 150.687C55.9164 165.416 63.7834 173.725 69.3128 174.222C86.1665 176.143 98.5254 157.425 102.598 147.825C102.841 147.002 101.845 143.805 95.917 137.596Z" fill="url(#paint19_linear_19_5887)"/>
<rect x="163" y="85" width="2" height="2" rx="1" fill="#D9D9D9"/>
<defs>
<radialGradient id="paint0_radial_19_5887" cx="0" cy="0" r="1" gradientUnits="userSpaceOnUse" gradientTransform="translate(152.911 167.876) scale(1.70278 1.70277)">
<stop stop-color="white"/>
<stop offset="1" stop-color="#FED5AB"/>
</radialGradient>
<radialGradient id="paint1_radial_19_5887" cx="0" cy="0" r="1" gradientUnits="userSpaceOnUse" gradientTransform="translate(159.107 132.752) scale(1.70278 1.70278)">
<stop stop-color="white"/>
<stop offset="1" stop-color="#FED5AB"/>
</radialGradient>
<linearGradient id="paint2_linear_19_5887" x1="229.969" y1="218.441" x2="90.6707" y2="-5.14286" gradientUnits="userSpaceOnUse">
<stop stop-color="#3079E4"/>
<stop offset="1" stop-color="#D3E7FF"/>
</linearGradient>
<linearGradient id="paint3_linear_19_5887" x1="166.554" y1="3.26414" x2="187.49" y2="190.751" gradientUnits="userSpaceOnUse">
<stop stop-color="#F2F2F2"/>
<stop offset="1" stop-color="white"/>
</linearGradient>
<linearGradient id="paint4_linear_19_5887" x1="206.303" y1="24.0116" x2="177.342" y2="21.918" gradientUnits="userSpaceOnUse">
<stop stop-color="#E0F2FF"/>
<stop offset="1" stop-color="#7FAAFE"/>
</linearGradient>
<linearGradient id="paint5_linear_19_5887" x1="206.381" y1="22.9648" x2="177.42" y2="20.8712" gradientUnits="userSpaceOnUse">
<stop stop-color="#4C93FE"/>
<stop offset="1" stop-color="#3155D2"/>
</linearGradient>
<linearGradient id="paint6_linear_19_5887" x1="228.098" y1="62.4145" x2="234.888" y2="62.4145" gradientUnits="userSpaceOnUse">
<stop stop-color="#8AB8FE"/>
<stop offset="1" stop-color="#3B75CB"/>
</linearGradient>
<linearGradient id="paint7_linear_19_5887" x1="187.677" y1="38.207" x2="187.677" y2="91.6682" gradientUnits="userSpaceOnUse">
<stop stop-color="#A2C8FF"/>
<stop offset="1" stop-color="#D7E7FF" stop-opacity="0"/>
</linearGradient>
<linearGradient id="paint8_linear_19_5887" x1="184.937" y1="69.4816" x2="182.991" y2="65.0502" gradientUnits="userSpaceOnUse">
<stop stop-color="#FFBCA0" stop-opacity="0"/>
<stop offset="0.99" stop-color="#BC5A32"/>
</linearGradient>
<linearGradient id="paint9_linear_19_5887" x1="182.734" y1="56.7813" x2="184.344" y2="53.4071" gradientUnits="userSpaceOnUse">
<stop stop-color="#BC5A32" stop-opacity="0"/>
<stop offset="0.99" stop-color="#FB9D76"/>
</linearGradient>
<linearGradient id="paint10_linear_19_5887" x1="190.312" y1="61.9922" x2="190.215" y2="60.3557" gradientUnits="userSpaceOnUse">
<stop stop-color="#CC7A5E" stop-opacity="0"/>
<stop offset="0.924" stop-color="#AA5F4B"/>
</linearGradient>
<linearGradient id="paint11_linear_19_5887" x1="188.253" y1="49.8802" x2="180.692" y2="69.0323" gradientUnits="userSpaceOnUse">
<stop stop-color="#F3885B"/>
<stop offset="1" stop-color="#FECCB7"/>
</linearGradient>
<linearGradient id="paint12_linear_19_5887" x1="181.448" y1="68.1844" x2="196.931" y2="119.949" gradientUnits="userSpaceOnUse">
<stop stop-color="#FAC45C"/>
<stop offset="1" stop-color="white"/>
</linearGradient>
<linearGradient id="paint13_linear_19_5887" x1="100.902" y1="115.037" x2="104.851" y2="107.241" gradientUnits="userSpaceOnUse">
<stop stop-color="#FFBCA0" stop-opacity="0"/>
<stop offset="0.99" stop-color="#BC5A32"/>
</linearGradient>
<linearGradient id="paint14_linear_19_5887" x1="78.4678" y1="121.838" x2="114.088" y2="217.268" gradientUnits="userSpaceOnUse">
<stop stop-color="#FBCE75"/>
<stop offset="1" stop-color="#FFFAF0"/>
</linearGradient>
<linearGradient id="paint15_linear_19_5887" x1="159.433" y1="90.6074" x2="108.724" y2="102.262" gradientUnits="userSpaceOnUse">
<stop stop-color="#F2D15C"/>
<stop offset="1" stop-color="white" stop-opacity="0.53"/>
</linearGradient>
<linearGradient id="paint16_linear_19_5887" x1="96.0762" y1="80.3272" x2="113.648" y2="108.551" gradientUnits="userSpaceOnUse">
<stop stop-color="#F3885B"/>
<stop offset="1" stop-color="#FECCB7"/>
</linearGradient>
<linearGradient id="paint17_linear_19_5887" x1="142" y1="85.9997" x2="186.5" y2="106" gradientUnits="userSpaceOnUse">
<stop stop-color="#2066C6"/>
<stop offset="1" stop-color="#DEE3E9"/>
</linearGradient>
<linearGradient id="paint18_linear_19_5887" x1="114.101" y1="104.163" x2="110.216" y2="151.868" gradientUnits="userSpaceOnUse">
<stop stop-color="#FDBFA6"/>
<stop offset="1" stop-color="#FFF4F0"/>
</linearGradient>
<linearGradient id="paint19_linear_19_5887" x1="98.5002" y1="140.5" x2="67.5002" y2="166.5" gradientUnits="userSpaceOnUse">
<stop stop-color="#FDC064"/>
<stop offset="1" stop-color="#FDC064" stop-opacity="0"/>
</linearGradient>
</defs>
</svg>
