<svg width="68" height="68" viewBox="0 0 68 68" fill="none" xmlns="http://www.w3.org/2000/svg">
<g clip-path="url(#clip0_19_59512)">
<rect width="68" height="68" rx="34" fill="#F8F8FC"/>
<path fill-rule="evenodd" clip-rule="evenodd" d="M27.4395 29.0425C27.5048 29.2255 27.5263 29.4213 27.5024 29.6141C27.4785 29.8069 27.4098 29.9914 27.3018 30.1529C27.1938 30.3144 27.0495 30.4484 26.8804 30.5442C26.7114 30.64 26.5223 30.6949 26.3282 30.7045C24.5274 30.7938 23.0143 29.9107 22.4884 28.4373C21.8137 26.5372 22.4537 24.5776 23.9172 24.0616C25.3807 23.5457 27.4395 29.0227 27.4395 29.0227" fill="url(#paint0_linear_19_59512)"/>
<path fill-rule="evenodd" clip-rule="evenodd" d="M41.6836 29.0425C41.6194 29.2259 41.5987 29.4218 41.6234 29.6145C41.648 29.8073 41.7173 29.9916 41.8257 30.153C41.934 30.3143 42.0785 30.4481 42.2476 30.5439C42.4167 30.6396 42.6058 30.6946 42.7998 30.7045C44.6007 30.7938 46.1138 29.9107 46.6397 28.4373C47.3094 26.5372 46.6695 24.5776 45.2059 24.0616C43.7424 23.5457 41.6836 29.0227 41.6836 29.0227" fill="url(#paint1_linear_19_59512)"/>
<path d="M24.1399 18.9634C24.1399 20.3339 24.9288 25.084 25.84 27.1234L42.5 27.8034C44.0737 26.4166 46.0152 22.4052 45.22 16.9234C44.226 10.0711 37.3177 8.71484 31.6024 8.71484C25.8872 8.71484 25.8872 12.141 26.1356 15.0777C22.9053 14.833 24.1399 17.2503 24.1399 18.9634Z" fill="url(#paint2_linear_19_59512)"/>
<path fill-rule="evenodd" clip-rule="evenodd" d="M5.66431 84.6659L7.60074 53.832C7.83231 52.063 8.76872 50.4436 10.2195 49.3034C11.6703 48.1632 13.5265 47.5878 15.4106 47.6941C17.2946 47.8005 19.065 48.5807 20.3617 49.876C21.6583 51.1713 22.3838 52.8844 22.3906 54.6669L18.5832 87.1795C18.5599 87.3827 10.8702 113.243 10.8702 113.243C9.83185 115.831 7.70364 117.17 4.9627 116.189C2.71756 115.389 2.36207 113.402 2.5211 111.25L5.66431 84.6659Z" fill="#FFC9AE"/>
<path fill-rule="evenodd" clip-rule="evenodd" d="M0.829102 61.763L7.39557 48.3842C8.22136 46.546 9.72347 45.1204 11.5715 44.421C13.4195 43.7217 15.462 43.8058 17.2496 44.6549C19.0373 45.504 20.4237 47.0486 21.1039 48.9488C21.784 50.849 21.7022 52.9492 20.8764 54.7874L14.3926 69.2439L0.829102 61.763Z" fill="url(#paint3_linear_19_59512)"/>
<path fill-rule="evenodd" clip-rule="evenodd" d="M62.5344 81.9549L60.719 51.3067C60.5019 49.5483 59.624 47.9387 58.2639 46.8054C56.9038 45.672 55.1636 45.1001 53.3973 45.2058C51.631 45.3115 49.9713 46.087 48.7557 47.3745C47.54 48.662 46.8599 50.3648 46.8535 52.1366L50.4229 84.4533C50.4449 84.6552 57.6539 110.359 57.6539 110.359C58.6274 112.932 60.6226 114.263 63.1922 113.288C65.297 112.493 65.6303 110.517 65.4812 108.379L62.5344 81.9549Z" fill="#FFC9AE"/>
<path fill-rule="evenodd" clip-rule="evenodd" d="M46.9884 67.9994C46.8514 65.6242 46.7365 63.2446 46.6304 60.8693C46.5332 57.9363 46.4227 55.0032 46.4404 52.0657C46.4438 50.1019 47.2068 48.2134 48.5735 46.7851C49.9403 45.3568 51.8081 44.4963 53.796 44.379C55.784 44.2617 57.7425 44.8965 59.2722 46.154C60.8019 47.4114 61.7877 49.1968 62.0286 51.1462C62.3954 54.0618 62.6429 56.9862 62.9125 59.9105C63.1026 62.386 63.2838 64.8658 63.4385 67.3456L46.9884 67.9994Z" fill="url(#paint4_linear_19_59512)"/>
<path fill-rule="evenodd" clip-rule="evenodd" d="M57.2195 45.0143C57.2195 45.0143 52.759 74.7612 52.759 82.1968C52.759 87.9908 53.6423 98.2049 53.6423 102.432C53.6412 102.974 53.4467 103.498 53.0933 103.911C52.74 104.325 52.2506 104.6 51.7124 104.688C39.996 106.663 26.3453 106.606 14.311 104.688C13.7695 104.603 13.276 104.33 12.9191 103.916C12.5621 103.503 12.3651 102.977 12.3634 102.432C12.3634 98.1961 13.2466 87.9996 13.2466 82.2143C13.2466 75.9331 10.9546 53.7404 9.96534 46.9939C9.9057 46.4414 10.0355 45.8851 10.3337 45.4151C10.6318 44.945 11.0809 44.5888 11.6082 44.4041C26.9768 38.0264 41.5947 38.3292 57.2195 45.0318" fill="url(#paint5_linear_19_59512)"/>
<path fill-rule="evenodd" clip-rule="evenodd" d="M34.5909 46.8229C33.7887 46.8381 32.9916 46.6831 32.2452 46.3666C31.4987 46.0501 30.8176 45.5784 30.2406 44.9784C29.6637 44.3785 29.2024 43.6621 28.8829 42.8701C28.5634 42.0782 28.3922 41.2263 28.3789 40.3631L29.0887 26.974L40.0466 26.5098L40.325 40.0685C40.3807 43.6978 37.9636 46.763 34.5909 46.8229Z" fill="url(#paint6_linear_19_59512)"/>
<path fill-rule="evenodd" clip-rule="evenodd" d="M42.9257 20.8243C42.5173 20.8473 42.0993 20.8626 41.6861 20.8626C37.6839 20.8626 32.1435 19.8742 29.0686 18.0781C27.4708 18.7281 26.1104 21.2809 25.7494 22.7048C25.5487 23.5098 25.5146 24.3357 25.6485 25.1495L26.9217 32.7407C27.1755 34.1463 28.0408 35.4355 29.3657 36.3824C30.6906 37.3293 32.3905 37.8734 34.1674 37.9192C35.9443 37.965 37.6846 37.5096 39.0832 36.6328C40.4817 35.7561 41.4492 34.5141 41.8158 33.1245L43.7377 25.6177C44.1574 23.9848 43.8641 22.2862 42.9065 20.8051" fill="url(#paint7_linear_19_59512)"/>
<path d="M34.5768 32.8356C33.8379 32.8353 33.1052 32.5895 32.4148 32.1103C32.3389 32.0573 32.2971 31.8892 32.3252 31.7505C32.3396 31.6808 32.3695 31.6229 32.4069 31.5925C32.4442 31.5622 32.4879 31.5603 32.526 31.5874C33.8453 32.4981 35.3021 32.4981 36.6214 31.5874C36.695 31.5536 36.777 31.6316 36.8038 31.761C36.8305 31.8903 36.7971 32.0474 36.7295 32.1103C36.042 32.5878 35.3126 32.8335 34.5768 32.8356Z" fill="#CF7653"/>
<path fill-rule="evenodd" clip-rule="evenodd" d="M31.7234 26.2152C31.7234 26.3791 31.6748 26.5392 31.5838 26.6755C31.4927 26.8117 31.3633 26.9179 31.2119 26.9806C31.0605 27.0433 30.894 27.0597 30.7333 27.0278C30.5726 26.9958 30.4249 26.9169 30.3091 26.801C30.1932 26.6852 30.1143 26.5375 30.0823 26.3768C30.0504 26.2161 30.0668 26.0495 30.1295 25.8982C30.1922 25.7468 30.2984 25.6174 30.4346 25.5263C30.5709 25.4353 30.731 25.3867 30.8949 25.3867C31.1146 25.3867 31.3254 25.474 31.4807 25.6294C31.6361 25.7847 31.7234 25.9955 31.7234 26.2152Z" fill="#4F2B23"/>
<path fill-rule="evenodd" clip-rule="evenodd" d="M39.032 26.2152C39.032 26.3791 38.9834 26.5392 38.8924 26.6755C38.8013 26.8117 38.6719 26.9179 38.5205 26.9806C38.3691 27.0433 38.2026 27.0597 38.0419 27.0278C37.8812 26.9958 37.7335 26.9169 37.6177 26.801C37.5018 26.6852 37.4229 26.5375 37.3909 26.3768C37.3589 26.2161 37.3754 26.0495 37.4381 25.8982C37.5008 25.7468 37.607 25.6174 37.7432 25.5263C37.8795 25.4353 38.0396 25.3867 38.2035 25.3867C38.4232 25.3867 38.6339 25.474 38.7893 25.6294C38.9447 25.7847 39.032 25.9955 39.032 26.2152Z" fill="#4F2B23"/>
<path d="M34.3198 30.607C34.1871 30.6022 34.0574 30.5114 34.0193 30.3375C33.9812 30.1636 34.1201 29.996 34.297 30.0023C34.297 30.0023 34.7867 29.9334 34.8447 29.5473C34.9028 29.1611 34.543 28.0699 34.3417 27.502C34.2594 27.3265 34.354 27.1573 34.5325 27.1205C34.7125 27.0407 34.8864 27.1331 34.9245 27.307C35.0068 27.4825 35.5297 28.9677 35.461 29.6555C35.3984 30.255 34.8491 30.6258 34.3198 30.607Z" fill="#B4603F"/>
<path fill-rule="evenodd" clip-rule="evenodd" d="M29.4373 24.3819C30.0429 24.3441 30.6511 24.3663 31.2516 24.4481C31.3295 24.458 31.4087 24.4533 31.4847 24.4345C31.7127 24.3781 31.8926 24.1865 31.922 23.9689C31.9767 23.5726 31.632 23.3827 31.306 23.322C30.9717 23.2535 30.6302 23.2195 30.2879 23.2207C29.9448 23.2247 29.6028 23.2559 29.2655 23.3142C28.7405 23.4077 27.5187 23.6439 27.8321 24.253C27.9324 24.4481 28.4453 24.4942 28.5418 24.4481" fill="#4F2B23"/>
<path fill-rule="evenodd" clip-rule="evenodd" d="M39.8068 24.3819C39.2013 24.3441 38.5931 24.3663 37.9926 24.4481C37.9146 24.458 37.8354 24.4533 37.7594 24.4345C37.5315 24.3781 37.3516 24.1865 37.3222 23.9689C37.2675 23.5726 37.6121 23.3827 37.9381 23.322C38.2724 23.2535 38.6139 23.2195 38.9563 23.2207C39.2993 23.2247 39.6413 23.2559 39.9786 23.3142C40.5037 23.4077 41.7254 23.6439 41.4121 24.253C41.3117 24.4481 40.7988 24.4942 40.7023 24.4481" fill="#4F2B23"/>
<path d="M35.2558 25.6367C35.6712 25.8197 35.8093 27.2202 36.5537 28.4076C37.2982 29.595 37.8897 29.9075 40.466 29.8472C43.1299 29.7847 43.5821 26.6266 43.7121 26.3208C43.7984 26.1177 44.0653 25.8353 44.2345 25.6679C44.4036 25.5006 44.3726 25.3566 44.3404 24.6089C44.3358 24.5058 44.296 24.4071 44.2273 24.3283C44.1585 24.2495 44.0647 24.1951 43.9606 24.1737C40.9896 23.5599 39.0127 23.3836 36.311 24.1078C35.7653 24.2692 35.195 24.3383 34.6252 24.3121C34.0531 24.3391 33.4804 24.27 32.9326 24.1078C30.2089 23.3758 28.2148 23.5688 25.2863 24.1737C25.1825 24.1955 25.0891 24.25 25.0206 24.3288C24.9522 24.4075 24.9125 24.506 24.9078 24.6089C24.8755 25.3432 24.8295 25.486 25.0136 25.6679C25.1977 25.8498 25.4497 26.1143 25.5349 26.3208C25.6649 26.6266 26.1171 29.7803 28.7821 29.8472C31.3607 29.9075 31.9545 29.595 32.6944 28.4076C33.4343 27.2202 33.5781 25.8197 33.9935 25.6367C34.2616 25.5195 34.9888 25.5195 35.2558 25.6367ZM42.8617 26.6924C42.6017 28.4433 41.7859 29.0794 41.3152 29.2591C40.8446 29.4388 38.8298 29.7055 37.7412 28.8998C36.6527 28.094 36.3063 26.4246 36.2948 25.505C36.2833 24.5855 37.7286 24.3533 37.7286 24.3533C39.3867 24.0297 41.0563 24.138 41.81 24.3779C42.5637 24.6178 43.1206 24.9415 42.8617 26.6924ZM27.4404 24.3779C28.1941 24.138 29.8637 24.0297 31.5207 24.3533C31.5207 24.3533 32.9682 24.5821 32.9556 25.505C32.9429 26.4279 32.5966 28.0985 31.5092 28.8998C30.4218 29.701 28.4047 29.4377 27.9352 29.2591C27.4657 29.0806 26.6487 28.4433 26.3887 26.6924C26.1286 24.9415 26.6856 24.6178 27.4404 24.3779Z" fill="#211615"/>
<path fill-rule="evenodd" clip-rule="evenodd" d="M34.899 7.74219C45.5455 8.99449 46.5798 11.4822 45.5598 21.6822C39.9304 17.7633 30.1093 18.4433 24.4799 22.3622C22.7798 12.5022 24.2169 8.99449 34.8674 7.75009L34.899 7.74219Z" fill="#30302F"/>
<path fill-rule="evenodd" clip-rule="evenodd" d="M35.3499 7.80673C38.7592 8.23338 41.1295 8.90101 42.7768 9.90839C44.7758 12.2787 45.1471 16.1541 45.1471 20.3772C39.6757 17.4262 30.4078 17.3866 24.8574 20.2745C24.8574 15.9289 25.2525 11.9784 27.445 9.66346C29.0884 8.77855 31.3955 8.19388 34.5559 7.79883C34.6876 7.85531 34.8277 7.89 34.9707 7.90154C35.0936 7.89218 35.2146 7.86558 35.3301 7.82253L35.3499 7.80673Z" fill="#4D4D4C"/>
<path fill-rule="evenodd" clip-rule="evenodd" d="M45.2875 20.8639C45.6596 21.8138 45.9317 22.7963 46.0997 23.7971C46.4132 25.5835 46.3384 25.7662 44.404 24.9271C36.1035 21.3308 33.6917 21.3037 25.6334 24.9237C23.7132 25.7898 23.6241 25.6004 23.9376 23.7971C24.1074 22.7967 24.3794 21.8143 24.7499 20.8639C27.6854 16.9766 42.1062 16.9631 45.2875 20.8639Z" fill="#131414"/>
<path fill-rule="evenodd" clip-rule="evenodd" d="M45.287 20.4496C45.6586 21.4846 45.9307 22.5552 46.0992 23.6456C46.4127 25.5979 46.3414 25.7862 44.4035 24.882C36.1034 21.0068 33.6917 21.0032 25.6338 24.8783C23.7102 25.8231 23.6247 25.6164 23.9382 23.6567C24.1077 22.5629 24.3798 21.4887 24.7504 20.4496C27.6857 16.2091 42.1059 16.1943 45.287 20.4496Z" fill="#30302F"/>
</g>
<rect x="1" y="1" width="66" height="66" rx="33" stroke="#F54444" stroke-width="2"/>
<defs>
<linearGradient id="paint0_linear_19_59512" x1="24.8658" y1="24.0273" x2="24.8658" y2="30.7107" gradientUnits="userSpaceOnUse">
<stop stop-color="#FFDBB9"/>
<stop offset="1" stop-color="#FFA975"/>
</linearGradient>
<linearGradient id="paint1_linear_19_59512" x1="44.2593" y1="24.0273" x2="44.2593" y2="30.7107" gradientUnits="userSpaceOnUse">
<stop stop-color="#FFDCBC"/>
<stop offset="1" stop-color="#FFB07F"/>
</linearGradient>
<linearGradient id="paint2_linear_19_59512" x1="35.2723" y1="8.71484" x2="28.2" y2="33.4141" gradientUnits="userSpaceOnUse">
<stop stop-color="#321011"/>
<stop offset="1" stop-color="#A76D6F"/>
</linearGradient>
<linearGradient id="paint3_linear_19_59512" x1="11.1102" y1="43.8074" x2="22.9918" y2="69.3799" gradientUnits="userSpaceOnUse">
<stop stop-color="#FAC45C"/>
<stop offset="1" stop-color="white"/>
</linearGradient>
<linearGradient id="paint4_linear_19_59512" x1="54.869" y1="44.2309" x2="66.8839" y2="66.9236" gradientUnits="userSpaceOnUse">
<stop stop-color="#FAC45C"/>
<stop offset="1" stop-color="white"/>
</linearGradient>
<linearGradient id="paint5_linear_19_59512" x1="33.3921" y1="39.4294" x2="67.2975" y2="102.862" gradientUnits="userSpaceOnUse">
<stop stop-color="#FAC45C"/>
<stop offset="1" stop-color="white"/>
</linearGradient>
<linearGradient id="paint6_linear_19_59512" x1="28.4017" y1="33.9992" x2="40.2188" y2="44.5724" gradientUnits="userSpaceOnUse">
<stop offset="0.0431818" stop-color="#FFA874"/>
<stop offset="0.994133" stop-color="#FFD5B2"/>
</linearGradient>
<linearGradient id="paint7_linear_19_59512" x1="25.2927" y1="37.3185" x2="44.7193" y2="27.4404" gradientUnits="userSpaceOnUse">
<stop stop-color="#FF9457"/>
<stop offset="1" stop-color="#FFDCBB"/>
</linearGradient>
<clipPath id="clip0_19_59512">
<rect width="68" height="68" rx="34" fill="white"/>
</clipPath>
</defs>
</svg>
