<svg width="141" height="140" viewBox="0 0 141 140" fill="none" xmlns="http://www.w3.org/2000/svg">
<g filter="url(#filter0_d_19_59454)">
<g clip-path="url(#clip0_19_59454)">
<rect x="8.5" y="4" width="124" height="124" rx="62" fill="white"/>
<path fill-rule="evenodd" clip-rule="evenodd" d="M58.5379 56.9617C58.6569 57.2955 58.6962 57.6524 58.6526 58.004C58.609 58.3556 58.4837 58.6921 58.2868 58.9866C58.0898 59.2811 57.8267 59.5255 57.5185 59.7001C57.2102 59.8747 56.8654 59.9748 56.5115 59.9924C53.2276 60.1552 50.4684 58.5449 49.5094 55.8581C48.2791 52.3932 49.4461 48.8198 52.1149 47.8789C54.7836 46.9381 58.5379 56.9256 58.5379 56.9256" fill="url(#paint0_linear_19_59454)"/>
<path fill-rule="evenodd" clip-rule="evenodd" d="M84.5111 56.9617C84.3939 57.2962 84.3563 57.6533 84.4012 58.0048C84.4462 58.3563 84.5725 58.6925 84.7701 58.9867C84.9677 59.2808 85.2311 59.5249 85.5395 59.6995C85.8478 59.874 86.1926 59.9743 86.5465 59.9924C89.8305 60.1552 92.5897 58.5449 93.5486 55.8581C94.7699 52.3932 93.6029 48.8198 90.9341 47.8789C88.2654 46.9381 84.5111 56.9256 84.5111 56.9256" fill="url(#paint1_linear_19_59454)"/>
<path d="M49.3633 38.6317C49.3633 41.1308 52.6862 49.1933 54.3477 52.9122L89.2387 54.6972C92.1085 52.1684 97.4856 44.6117 96.0356 34.6154C94.2231 22.12 76.551 19.8887 66.1291 19.8887C55.7071 19.8887 55.7071 26.1364 56.1602 31.4915C50.2695 31.0453 49.3633 35.5079 49.3633 38.6317Z" fill="url(#paint2_linear_19_59454)"/>
<path fill-rule="evenodd" clip-rule="evenodd" d="M18.8282 158.391L22.3593 102.165C22.7816 98.9387 24.4892 95.9858 27.1347 93.9066C29.7803 91.8274 33.1651 90.7781 36.6008 90.972C40.0364 91.166 43.2648 92.5886 45.6293 94.9506C47.9937 97.3127 49.3167 100.437 49.3291 103.687L42.3862 162.975C42.3436 163.345 28.3213 210.501 28.3213 210.501C26.4278 215.222 22.547 217.663 17.5488 215.874C13.4547 214.416 12.8064 210.791 13.0964 206.868L18.8282 158.391Z" fill="#FFC9AE"/>
<path fill-rule="evenodd" clip-rule="evenodd" d="M10.0127 116.627L21.9869 92.2302C23.4927 88.8782 26.2318 86.2786 29.6017 85.0033C32.9716 83.728 36.6961 83.8814 39.956 85.4298C43.2159 86.9782 45.744 89.7947 46.9843 93.2598C48.2246 96.7249 48.0754 100.555 46.5695 103.907L34.7461 130.268L10.0127 116.627Z" fill="url(#paint3_linear_19_59454)"/>
<path fill-rule="evenodd" clip-rule="evenodd" d="M122.533 153.45L119.223 97.5619C118.827 94.3554 117.226 91.4203 114.746 89.3536C112.265 87.287 109.092 86.2439 105.871 86.4367C102.65 86.6295 99.6238 88.0436 97.4071 90.3914C95.1904 92.7392 93.9501 95.8443 93.9385 99.0752L100.447 158.006C100.487 158.374 113.633 205.246 113.633 205.246C115.408 209.938 119.047 212.364 123.733 210.587C127.571 209.137 128.178 205.534 127.907 201.635L122.533 153.45Z" fill="#FFC9AE"/>
<path fill-rule="evenodd" clip-rule="evenodd" d="M94.1854 128C93.9356 123.669 93.726 119.329 93.5326 114.998C93.3553 109.65 93.1538 104.301 93.186 98.9445C93.1924 95.3634 94.5836 91.9196 97.076 89.315C99.5683 86.7105 102.974 85.1413 106.599 84.9275C110.224 84.7136 113.796 85.8712 116.585 88.1641C119.375 90.4571 121.172 93.7128 121.612 97.2676C122.281 102.584 122.732 107.917 123.224 113.25C123.57 117.764 123.901 122.286 124.183 126.808L94.1854 128Z" fill="url(#paint4_linear_19_59454)"/>
<path fill-rule="evenodd" clip-rule="evenodd" d="M112.842 86.0822C112.842 86.0822 104.708 140.327 104.708 153.886C104.708 164.451 106.319 183.077 106.319 190.785C106.317 191.774 105.962 192.73 105.317 193.483C104.673 194.236 103.781 194.738 102.799 194.899C81.4341 198.501 56.5417 198.397 34.5967 194.899C33.6092 194.745 32.7094 194.246 32.0585 193.492C31.4077 192.738 31.0484 191.778 31.0452 190.785C31.0452 183.061 32.6558 164.467 32.6558 153.918C32.6558 142.464 28.4762 101.995 26.6723 89.6921C26.5636 88.6846 26.8002 87.6702 27.3439 86.8131C27.8877 85.956 28.7066 85.3064 29.6681 84.9696C57.6933 73.3396 84.3494 73.8918 112.842 86.1142" fill="url(#paint5_linear_19_59454)"/>
<path fill-rule="evenodd" clip-rule="evenodd" d="M71.5796 89.3854C70.1168 89.4131 68.6634 89.1304 67.3022 88.5532C65.9411 87.9761 64.6989 87.1159 63.6469 86.0219C62.5949 84.9279 61.7535 83.6215 61.171 82.1774C60.5885 80.7332 60.2762 79.1797 60.252 77.6056L61.5463 53.1904L81.5284 52.3438L82.036 77.0685C82.1375 83.6867 77.7299 89.2762 71.5796 89.3854Z" fill="url(#paint6_linear_19_59454)"/>
<path fill-rule="evenodd" clip-rule="evenodd" d="M86.7766 41.9725C86.0319 42.0145 85.2697 42.0425 84.5163 42.0425C77.2181 42.0425 67.1149 40.2401 61.5077 36.9648C58.5942 38.15 56.1134 42.8051 55.4551 45.4017C55.0891 46.8697 55.027 48.3756 55.2712 49.8597L57.5929 63.7025C58.0557 66.2656 59.6335 68.6166 62.0495 70.3433C64.4655 72.07 67.5654 73.0621 70.8056 73.1456C74.0458 73.2291 77.2194 72.3987 79.7696 70.7999C82.3199 69.2012 84.0841 66.9362 84.7528 64.4023L88.2573 50.7135C89.0227 47.7358 88.4878 44.6384 86.7416 41.9375" fill="url(#paint7_linear_19_59454)"/>
<path d="M71.5515 63.8812C70.2041 63.8807 68.8681 63.4324 67.6091 62.5586C67.4707 62.462 67.3944 62.1554 67.4457 61.9024C67.472 61.7753 67.5265 61.6697 67.5946 61.6144C67.6627 61.5591 67.7423 61.5557 67.8118 61.6051C70.2176 63.2657 72.8742 63.2657 75.28 61.6051C75.4142 61.5433 75.5638 61.6857 75.6125 61.9215C75.6613 62.1574 75.6004 62.4439 75.4771 62.5586C74.2235 63.4292 72.8933 63.8774 71.5515 63.8812Z" fill="#CF7653"/>
<path fill-rule="evenodd" clip-rule="evenodd" d="M66.3487 51.8037C66.3487 52.1025 66.2601 52.3946 66.0941 52.6431C65.9281 52.8915 65.6921 53.0852 65.4161 53.1995C65.14 53.3138 64.8363 53.3438 64.5432 53.2855C64.2501 53.2272 63.981 53.0833 63.7697 52.872C63.5584 52.6607 63.4145 52.3915 63.3562 52.0985C63.2979 51.8054 63.3278 51.5016 63.4422 51.2256C63.5565 50.9495 63.7502 50.7136 63.9986 50.5476C64.247 50.3816 64.5391 50.293 64.8379 50.293C65.2386 50.293 65.6229 50.4521 65.9062 50.7355C66.1895 51.0188 66.3487 51.4031 66.3487 51.8037Z" fill="#4F2B23"/>
<path fill-rule="evenodd" clip-rule="evenodd" d="M79.6778 51.8037C79.6778 52.1025 79.5892 52.3946 79.4232 52.6431C79.2572 52.8915 79.0212 53.0852 78.7452 53.1995C78.4691 53.3138 78.1654 53.3438 77.8723 53.2855C77.5793 53.2272 77.3101 53.0833 77.0988 52.872C76.8875 52.6607 76.7436 52.3915 76.6853 52.0985C76.627 51.8054 76.6569 51.5016 76.7713 51.2256C76.8856 50.9495 77.0793 50.7136 77.3277 50.5476C77.5761 50.3816 77.8682 50.293 78.167 50.293C78.5677 50.293 78.952 50.4521 79.2353 50.7355C79.5186 51.0188 79.6778 51.4031 79.6778 51.8037Z" fill="#4F2B23"/>
<path d="M71.084 59.8128C70.842 59.8042 70.6056 59.6385 70.5361 59.3214C70.4666 59.0043 70.7198 58.6986 71.0425 58.7101C71.0425 58.7101 71.9354 58.5846 72.0413 57.8804C72.1471 57.1763 71.491 55.1864 71.124 54.1508C70.9739 53.8308 71.1464 53.5223 71.4719 53.4552C71.8001 53.3096 72.1172 53.4782 72.1867 53.7953C72.3368 54.1153 73.2904 56.8237 73.165 58.0777C73.051 59.1711 72.0492 59.8472 71.084 59.8128Z" fill="#B4603F"/>
<path fill-rule="evenodd" clip-rule="evenodd" d="M62.1774 48.4592C63.2817 48.3904 64.3907 48.4309 65.4858 48.58C65.6278 48.598 65.7723 48.5895 65.9109 48.5552C66.3266 48.4523 66.6546 48.103 66.7082 47.7061C66.808 46.9834 66.1795 46.6371 65.5851 46.5266C64.9754 46.4016 64.3527 46.3396 63.7284 46.3419C63.1029 46.349 62.4792 46.406 61.8641 46.5124C60.9067 46.6828 58.6787 47.1135 59.2502 48.2243C59.4331 48.58 60.3685 48.6641 60.5445 48.58" fill="#4F2B23"/>
<path fill-rule="evenodd" clip-rule="evenodd" d="M81.0902 48.4592C79.9859 48.3904 78.8769 48.4309 77.7818 48.58C77.6397 48.598 77.4952 48.5895 77.3567 48.5552C76.941 48.4523 76.613 48.103 76.5593 47.7061C76.4596 46.9834 77.0881 46.6371 77.6825 46.5266C78.2922 46.4016 78.9148 46.3396 79.5391 46.3419C80.1647 46.349 80.7884 46.406 81.4034 46.5124C82.3609 46.6828 84.5888 47.1135 84.0174 48.2243C83.8344 48.58 82.8991 48.6641 82.7231 48.58" fill="#4F2B23"/>
</g>
</g>
<defs>
<filter id="filter0_d_19_59454" x="0.5" y="0" width="140" height="140" filterUnits="userSpaceOnUse" color-interpolation-filters="sRGB">
<feFlood flood-opacity="0" result="BackgroundImageFix"/>
<feColorMatrix in="SourceAlpha" type="matrix" values="0 0 0 0 0 0 0 0 0 0 0 0 0 0 0 0 0 0 127 0" result="hardAlpha"/>
<feOffset dy="4"/>
<feGaussianBlur stdDeviation="4"/>
<feComposite in2="hardAlpha" operator="out"/>
<feColorMatrix type="matrix" values="0 0 0 0 0 0 0 0 0 0 0 0 0 0 0 0 0 0 0.05 0"/>
<feBlend mode="normal" in2="BackgroundImageFix" result="effect1_dropShadow_19_59454"/>
<feBlend mode="normal" in="SourceGraphic" in2="effect1_dropShadow_19_59454" result="shape"/>
</filter>
<linearGradient id="paint0_linear_19_59454" x1="53.8447" y1="47.8164" x2="53.8447" y2="60.0037" gradientUnits="userSpaceOnUse">
<stop stop-color="#FFDBB9"/>
<stop offset="1" stop-color="#FFA975"/>
</linearGradient>
<linearGradient id="paint1_linear_19_59454" x1="89.2079" y1="47.8164" x2="89.2079" y2="60.0037" gradientUnits="userSpaceOnUse">
<stop stop-color="#FFDCBC"/>
<stop offset="1" stop-color="#FFB07F"/>
</linearGradient>
<linearGradient id="paint2_linear_19_59454" x1="72.8212" y1="19.8887" x2="59.9248" y2="64.9285" gradientUnits="userSpaceOnUse">
<stop stop-color="#321011"/>
<stop offset="1" stop-color="#A76D6F"/>
</linearGradient>
<linearGradient id="paint3_linear_19_59454" x1="28.7606" y1="83.8842" x2="50.427" y2="130.516" gradientUnits="userSpaceOnUse">
<stop stop-color="#FAC45C"/>
<stop offset="1" stop-color="white"/>
</linearGradient>
<linearGradient id="paint4_linear_19_59454" x1="108.556" y1="84.6573" x2="130.465" y2="126.038" gradientUnits="userSpaceOnUse">
<stop stop-color="#FAC45C"/>
<stop offset="1" stop-color="white"/>
</linearGradient>
<linearGradient id="paint5_linear_19_59454" x1="69.3917" y1="75.8981" x2="131.219" y2="191.569" gradientUnits="userSpaceOnUse">
<stop stop-color="#FAC45C"/>
<stop offset="1" stop-color="white"/>
</linearGradient>
<linearGradient id="paint6_linear_19_59454" x1="60.2935" y1="66.001" x2="81.8423" y2="85.2815" gradientUnits="userSpaceOnUse">
<stop offset="0.0431818" stop-color="#FFA874"/>
<stop offset="0.994133" stop-color="#FFD5B2"/>
</linearGradient>
<linearGradient id="paint7_linear_19_59454" x1="54.6223" y1="72.0502" x2="90.0473" y2="54.0372" gradientUnits="userSpaceOnUse">
<stop stop-color="#FFC3A2"/>
<stop offset="1" stop-color="#FFDCBB"/>
</linearGradient>
<clipPath id="clip0_19_59454">
<rect x="8.5" y="4" width="124" height="124" rx="62" fill="white"/>
</clipPath>
</defs>
</svg>
