<svg width="68" height="68" viewBox="0 0 68 68" fill="none" xmlns="http://www.w3.org/2000/svg">
<g clip-path="url(#clip0_19_59482)">
<rect width="68" height="68" rx="34" fill="#F8F8FC"/>
<path fill-rule="evenodd" clip-rule="evenodd" d="M27.4395 29.0425C27.5048 29.2255 27.5263 29.4213 27.5024 29.6141C27.4785 29.8069 27.4098 29.9914 27.3018 30.1529C27.1938 30.3144 27.0495 30.4484 26.8804 30.5442C26.7114 30.64 26.5223 30.6949 26.3282 30.7045C24.5274 30.7938 23.0143 29.9107 22.4884 28.4373C21.8137 26.5372 22.4537 24.5776 23.9172 24.0616C25.3807 23.5457 27.4395 29.0227 27.4395 29.0227" fill="url(#paint0_linear_19_59482)"/>
<path fill-rule="evenodd" clip-rule="evenodd" d="M41.6836 29.0425C41.6194 29.2259 41.5987 29.4218 41.6234 29.6145C41.648 29.8073 41.7173 29.9916 41.8257 30.153C41.934 30.3143 42.0785 30.4481 42.2476 30.5439C42.4167 30.6396 42.6058 30.6946 42.7998 30.7045C44.6007 30.7938 46.1138 29.9107 46.6397 28.4373C47.3094 26.5372 46.6695 24.5776 45.2059 24.0616C43.7424 23.5457 41.6836 29.0227 41.6836 29.0227" fill="url(#paint1_linear_19_59482)"/>
<path d="M22.4082 18.9913C22.4082 20.3618 24.2305 24.7832 25.1416 26.8226L44.2753 27.8015C45.8491 26.4147 48.7979 22.2707 48.0027 16.7888C47.0087 9.93652 37.3176 8.71289 31.6023 8.71289C25.8871 8.71289 25.8871 12.139 26.1356 15.0757C22.9052 14.831 22.4082 17.2783 22.4082 18.9913Z" fill="url(#paint2_linear_19_59482)"/>
<path fill-rule="evenodd" clip-rule="evenodd" d="M5.66431 84.666L7.60074 53.832C7.83231 52.063 8.76872 50.4436 10.2195 49.3034C11.6703 48.1632 13.5265 47.5878 15.4106 47.6941C17.2946 47.8005 19.065 48.5807 20.3617 49.876C21.6583 51.1713 22.3838 52.8844 22.3906 54.6669L18.5832 87.1795C18.5599 87.3827 10.8702 113.243 10.8702 113.243C9.83185 115.831 7.70364 117.17 4.9627 116.189C2.71756 115.389 2.36207 113.402 2.5211 111.25L5.66431 84.666Z" fill="#FFC9AE"/>
<path fill-rule="evenodd" clip-rule="evenodd" d="M0.830078 61.763L7.39655 48.3842C8.22234 46.546 9.72445 45.1204 11.5724 44.421C13.4204 43.7217 15.4629 43.8058 17.2506 44.6549C19.0383 45.504 20.4247 47.0486 21.1048 48.9488C21.785 50.849 21.7032 52.9492 20.8774 54.7874L14.3935 69.2439L0.830078 61.763Z" fill="url(#paint3_linear_19_59482)"/>
<path fill-rule="evenodd" clip-rule="evenodd" d="M62.5344 81.9568L60.719 51.3087C60.5019 49.5503 59.624 47.9407 58.2639 46.8073C56.9038 45.674 55.1636 45.102 53.3973 45.2077C51.631 45.3135 49.9713 46.0889 48.7557 47.3764C47.54 48.6639 46.8599 50.3667 46.8535 52.1385L50.4229 84.4552C50.4449 84.6572 57.6539 110.361 57.6539 110.361C58.6274 112.934 60.6226 114.265 63.1922 113.29C65.297 112.495 65.6303 110.519 65.4812 108.381L62.5344 81.9568Z" fill="#FFC9AE"/>
<path fill-rule="evenodd" clip-rule="evenodd" d="M46.9894 67.9994C46.8524 65.6242 46.7375 63.2446 46.6314 60.8693C46.5341 57.9363 46.4237 55.0032 46.4413 52.0657C46.4448 50.1019 47.2077 48.2134 48.5745 46.7851C49.9413 45.3568 51.8091 44.4963 53.797 44.379C55.785 44.2617 57.7434 44.8965 59.2732 46.154C60.8029 47.4114 61.7887 49.1968 62.0296 51.1462C62.3964 54.0618 62.6439 56.9862 62.9135 59.9105C63.1036 62.386 63.2848 64.8658 63.4395 67.3456L46.9894 67.9994Z" fill="url(#paint4_linear_19_59482)"/>
<path fill-rule="evenodd" clip-rule="evenodd" d="M57.2195 45.0123C57.2195 45.0123 52.759 74.7592 52.759 82.1948C52.759 87.9888 53.6423 98.2029 53.6423 102.43C53.6412 102.972 53.4467 103.496 53.0933 103.91C52.74 104.323 52.2506 104.598 51.7124 104.686C39.996 106.661 26.3453 106.604 14.311 104.686C13.7695 104.602 13.276 104.328 12.9191 103.915C12.5621 103.501 12.3651 102.975 12.3634 102.43C12.3634 98.1942 13.2466 87.9976 13.2466 82.2124C13.2466 75.9312 10.9546 53.7384 9.96534 46.9919C9.9057 46.4395 10.0355 45.8831 10.3337 45.4131C10.6318 44.9431 11.0809 44.5869 11.6082 44.4022C26.9768 38.0244 41.5947 38.3273 57.2195 45.0299" fill="url(#paint5_linear_19_59482)"/>
<path fill-rule="evenodd" clip-rule="evenodd" d="M34.5918 46.8249C33.7897 46.8401 32.9926 46.685 32.2462 46.3685C31.4997 46.052 30.8185 45.5803 30.2416 44.9804C29.6647 44.3805 29.2033 43.664 28.8839 42.8721C28.5644 42.0801 28.3932 41.2282 28.3799 40.365L29.0897 26.976L40.0476 26.5117L40.326 40.0705C40.3817 43.6998 37.9646 46.765 34.5918 46.8249Z" fill="url(#paint6_linear_19_59482)"/>
<path fill-rule="evenodd" clip-rule="evenodd" d="M42.9257 20.8243C42.5173 20.8473 42.0993 20.8626 41.6861 20.8626C37.6839 20.8626 32.1435 19.8742 29.0686 18.0781C27.4708 18.7281 26.1104 21.2809 25.7494 22.7048C25.5487 23.5098 25.5146 24.3357 25.6485 25.1495L26.9217 32.7407C27.1755 34.1463 28.0408 35.4355 29.3657 36.3824C30.6906 37.3293 32.3905 37.8734 34.1674 37.9192C35.9443 37.965 37.6846 37.5096 39.0832 36.6328C40.4817 35.7561 41.4492 34.5141 41.8158 33.1245L43.7377 25.6177C44.1574 23.9848 43.8641 22.2862 42.9065 20.8051" fill="url(#paint7_linear_19_59482)"/>
<path d="M34.5768 32.8395C33.8379 32.8392 33.1052 32.5934 32.4148 32.1142C32.3389 32.0612 32.2971 31.8931 32.3252 31.7544C32.3396 31.6847 32.3695 31.6268 32.4069 31.5964C32.4442 31.5661 32.4879 31.5642 32.526 31.5913C33.8453 32.502 35.3021 32.502 36.6214 31.5913C36.695 31.5575 36.777 31.6355 36.8038 31.7649C36.8305 31.8942 36.7971 32.0513 36.7295 32.1142C36.042 32.5917 35.3126 32.8374 34.5768 32.8395Z" fill="#CF7653"/>
<path fill-rule="evenodd" clip-rule="evenodd" d="M31.7234 26.2133C31.7234 26.3771 31.6748 26.5373 31.5838 26.6735C31.4927 26.8098 31.3633 26.916 31.2119 26.9787C31.0605 27.0414 30.894 27.0578 30.7333 27.0258C30.5726 26.9938 30.4249 26.9149 30.3091 26.7991C30.1932 26.6832 30.1143 26.5356 30.0823 26.3749C30.0504 26.2142 30.0668 26.0476 30.1295 25.8962C30.1922 25.7448 30.2984 25.6154 30.4346 25.5244C30.5709 25.4334 30.731 25.3848 30.8949 25.3848C31.1146 25.3848 31.3254 25.4721 31.4807 25.6274C31.6361 25.7828 31.7234 25.9935 31.7234 26.2133Z" fill="#4F2B23"/>
<path fill-rule="evenodd" clip-rule="evenodd" d="M39.033 26.2133C39.033 26.3771 38.9844 26.5373 38.8933 26.6735C38.8023 26.8098 38.6729 26.916 38.5215 26.9787C38.3701 27.0414 38.2036 27.0578 38.0428 27.0258C37.8821 26.9938 37.7345 26.9149 37.6187 26.7991C37.5028 26.6832 37.4239 26.5356 37.3919 26.3749C37.3599 26.2142 37.3764 26.0476 37.4391 25.8962C37.5018 25.7448 37.6079 25.6154 37.7442 25.5244C37.8804 25.4334 38.0406 25.3848 38.2045 25.3848C38.4242 25.3848 38.6349 25.4721 38.7903 25.6274C38.9457 25.7828 39.033 25.9935 39.033 26.2133Z" fill="#4F2B23"/>
<path d="M34.3207 30.607C34.188 30.6022 34.0584 30.5114 34.0203 30.3375C33.9822 30.1636 34.121 29.996 34.298 30.0023C34.298 30.0023 34.7877 29.9334 34.8457 29.5473C34.9037 29.1611 34.5439 28.0699 34.3427 27.502C34.2603 27.3265 34.355 27.1573 34.5334 27.1205C34.7135 27.0407 34.8873 27.1331 34.9254 27.307C35.0078 27.4825 35.5307 28.9677 35.4619 29.6555C35.3994 30.255 34.85 30.6258 34.3207 30.607Z" fill="#B4603F"/>
<path fill-rule="evenodd" clip-rule="evenodd" d="M29.4363 24.3799C30.0419 24.3422 30.6501 24.3644 31.2506 24.4462C31.3285 24.456 31.4078 24.4514 31.4837 24.4326C31.7117 24.3761 31.8916 24.1846 31.921 23.9669C31.9757 23.5706 31.631 23.3807 31.3051 23.3201C30.9707 23.2515 30.6293 23.2176 30.2869 23.2188C29.9439 23.2227 29.6018 23.254 29.2645 23.3123C28.7395 23.4057 27.5177 23.642 27.8311 24.2511C27.9314 24.4462 28.4443 24.4923 28.5409 24.4462" fill="#4F2B23"/>
<path fill-rule="evenodd" clip-rule="evenodd" d="M39.8068 24.3799C39.2013 24.3422 38.5931 24.3644 37.9926 24.4462C37.9146 24.456 37.8354 24.4514 37.7594 24.4326C37.5315 24.3761 37.3516 24.1846 37.3222 23.9669C37.2675 23.5706 37.6121 23.3807 37.9381 23.3201C38.2724 23.2515 38.6139 23.2176 38.9563 23.2188C39.2993 23.2227 39.6413 23.254 39.9786 23.3123C40.5037 23.4057 41.7254 23.642 41.4121 24.2511C41.3117 24.4462 40.7988 24.4923 40.7023 24.4462" fill="#4F2B23"/>
<g filter="url(#filter0_f_19_59482)">
<path d="M-7.82205 43.0718L75.5913 0L87.973 19.5781L28.0196 79.6176C-5.86704 90.0592 -9.99427 59.6044 -7.82205 43.0718Z" fill="url(#paint8_linear_19_59482)" fill-opacity="0.7"/>
</g>
<g filter="url(#filter1_f_19_59482)">
<path d="M16.78 62.5038L59.0091 9.46967L72.954 18.7097L51.1976 75.9895C31.9564 92.8854 20.2354 74.039 16.78 62.5038Z" fill="url(#paint9_linear_19_59482)" fill-opacity="0.7"/>
</g>
</g>
<rect x="1" y="1" width="66" height="66" rx="33" stroke="#F54444" stroke-width="2"/>
<defs>
<filter id="filter0_f_19_59482" x="-9.95968" y="-1.65988" width="99.5922" height="85.0688" filterUnits="userSpaceOnUse" color-interpolation-filters="sRGB">
<feFlood flood-opacity="0" result="BackgroundImageFix"/>
<feBlend mode="normal" in="SourceGraphic" in2="BackgroundImageFix" result="shape"/>
<feGaussianBlur stdDeviation="0.829938" result="effect1_foregroundBlur_19_59482"/>
</filter>
<filter id="filter1_f_19_59482" x="15.1204" y="7.80985" width="59.4936" height="76.5727" filterUnits="userSpaceOnUse" color-interpolation-filters="sRGB">
<feFlood flood-opacity="0" result="BackgroundImageFix"/>
<feBlend mode="normal" in="SourceGraphic" in2="BackgroundImageFix" result="shape"/>
<feGaussianBlur stdDeviation="0.829938" result="effect1_foregroundBlur_19_59482"/>
</filter>
<linearGradient id="paint0_linear_19_59482" x1="24.8658" y1="24.0273" x2="24.8658" y2="30.7107" gradientUnits="userSpaceOnUse">
<stop stop-color="#FFDBB9"/>
<stop offset="1" stop-color="#FFA975"/>
</linearGradient>
<linearGradient id="paint1_linear_19_59482" x1="44.2593" y1="24.0273" x2="44.2593" y2="30.7107" gradientUnits="userSpaceOnUse">
<stop stop-color="#FFDCBC"/>
<stop offset="1" stop-color="#FFB07F"/>
</linearGradient>
<linearGradient id="paint2_linear_19_59482" x1="35.2722" y1="8.71289" x2="28.2" y2="33.4121" gradientUnits="userSpaceOnUse">
<stop stop-color="#321011"/>
<stop offset="1" stop-color="#A76D6F"/>
</linearGradient>
<linearGradient id="paint3_linear_19_59482" x1="11.1112" y1="43.8074" x2="22.9928" y2="69.3799" gradientUnits="userSpaceOnUse">
<stop stop-color="#FAC45C"/>
<stop offset="1" stop-color="white"/>
</linearGradient>
<linearGradient id="paint4_linear_19_59482" x1="54.87" y1="44.2309" x2="66.8848" y2="66.9236" gradientUnits="userSpaceOnUse">
<stop stop-color="#FAC45C"/>
<stop offset="1" stop-color="white"/>
</linearGradient>
<linearGradient id="paint5_linear_19_59482" x1="33.3921" y1="39.4275" x2="67.2975" y2="102.86" gradientUnits="userSpaceOnUse">
<stop stop-color="#FAC45C"/>
<stop offset="1" stop-color="white"/>
</linearGradient>
<linearGradient id="paint6_linear_19_59482" x1="28.4027" y1="34.0012" x2="40.2197" y2="44.5744" gradientUnits="userSpaceOnUse">
<stop offset="0.0431818" stop-color="#FFA874"/>
<stop offset="0.994133" stop-color="#FFD5B2"/>
</linearGradient>
<linearGradient id="paint7_linear_19_59482" x1="25.2927" y1="37.3185" x2="44.7193" y2="27.4404" gradientUnits="userSpaceOnUse">
<stop stop-color="#FF9457"/>
<stop offset="1" stop-color="#FFDCBB"/>
</linearGradient>
<linearGradient id="paint8_linear_19_59482" x1="83.4857" y1="4.90494" x2="13.9669" y2="93.0599" gradientUnits="userSpaceOnUse">
<stop stop-color="white"/>
<stop offset="1" stop-color="white" stop-opacity="0"/>
</linearGradient>
<linearGradient id="paint9_linear_19_59482" x1="65.6604" y1="10.3681" x2="45.9116" y2="89.0001" gradientUnits="userSpaceOnUse">
<stop stop-color="white"/>
<stop offset="1" stop-color="white" stop-opacity="0"/>
</linearGradient>
<clipPath id="clip0_19_59482">
<rect width="68" height="68" rx="34" fill="white"/>
</clipPath>
</defs>
</svg>
