<svg width="20" height="20" viewBox="0 0 20 20" fill="none" xmlns="http://www.w3.org/2000/svg">
<path fill-rule="evenodd" clip-rule="evenodd" d="M6.97628 16.5996H5.97148C4.58508 16.5996 3.45708 15.4716 3.45708 14.0852V12.8236C3.45708 12.4924 3.18828 12.2236 2.85708 12.2236C2.52588 12.2236 2.25708 12.4924 2.25708 12.8236V14.0852C2.25708 16.1332 3.92348 17.7996 5.97148 17.7996H6.97628C7.30748 17.7996 7.57628 17.5308 7.57628 17.1996C7.57628 16.8684 7.30748 16.5996 6.97628 16.5996Z" fill="#3D4657"/>
<path fill-rule="evenodd" clip-rule="evenodd" d="M2.85635 7.77522C3.18755 7.77522 3.45635 7.50642 3.45635 7.17522V5.91362C3.45635 4.52722 4.58435 3.39922 5.97075 3.39922H7.00195C7.33315 3.39922 7.60195 3.13042 7.60195 2.79922C7.60195 2.46802 7.33315 2.19922 7.00195 2.19922H5.97075C3.92275 2.19922 2.25635 3.86562 2.25635 5.91362V7.17522C2.25635 7.50642 2.52515 7.77522 2.85635 7.77522Z" fill="#3D4657"/>
<path fill-rule="evenodd" clip-rule="evenodd" d="M17.2544 12.2236C16.9232 12.2236 16.6544 12.4924 16.6544 12.8236V14.0852C16.6544 15.4716 15.5264 16.5996 14.14 16.5996H13.1088C12.7776 16.5996 12.5088 16.8684 12.5088 17.1996C12.5088 17.5308 12.7776 17.7996 13.1088 17.7996H14.14C16.188 17.7996 17.8544 16.1332 17.8544 14.0852V12.8236C17.8544 12.4924 17.5856 12.2236 17.2544 12.2236Z" fill="#3D4657"/>
<path fill-rule="evenodd" clip-rule="evenodd" d="M14.1412 2.19922H13.1364C12.8052 2.19922 12.5364 2.46802 12.5364 2.79922C12.5364 3.13042 12.8052 3.39922 13.1364 3.39922H14.1412C15.5276 3.39922 16.6556 4.52722 16.6556 5.91362V7.17522C16.6556 7.50642 16.9244 7.77522 17.2556 7.77522C17.5868 7.77522 17.8556 7.50642 17.8556 7.17522V5.91362C17.8556 3.86562 16.1892 2.19922 14.1412 2.19922Z" fill="#3D4657"/>
<path fill-rule="evenodd" clip-rule="evenodd" d="M6.81221 7.89941C6.37061 7.89941 6.01221 8.25781 6.01221 8.69941V11.2994C6.01221 11.741 6.37061 12.0994 6.81221 12.0994C7.25381 12.0994 7.61221 11.741 7.61221 11.2994V8.69941C7.61221 8.25781 7.25381 7.89941 6.81221 7.89941Z" fill="#3D4657"/>
<path fill-rule="evenodd" clip-rule="evenodd" d="M13.3002 12.0994C13.7418 12.0994 14.1002 11.741 14.1002 11.2994V8.69941C14.1002 8.25781 13.7418 7.89941 13.3002 7.89941C12.8586 7.89941 12.5002 8.25781 12.5002 8.69941V11.2994C12.5002 11.741 12.8586 12.0994 13.3002 12.0994Z" fill="#3D4657"/>
<path fill-rule="evenodd" clip-rule="evenodd" d="M10.0566 5.52637C9.61499 5.52637 9.25659 5.88477 9.25659 6.32637V13.6728C9.25659 14.1144 9.61499 14.4728 10.0566 14.4728C10.4982 14.4728 10.8566 14.1144 10.8566 13.6728V6.32637C10.8566 5.88477 10.4982 5.52637 10.0566 5.52637Z" fill="#3D4657"/>
</svg>
