<svg width="141" height="140" viewBox="0 0 141 140" fill="none" xmlns="http://www.w3.org/2000/svg">
<path d="M72.8808 121.993C100.801 121.993 123.435 99.4228 123.435 71.5807C123.435 43.7385 100.801 21.168 72.8808 21.168C44.9603 21.168 22.3262 43.7385 22.3262 71.5807C22.3262 99.4228 44.9603 121.993 72.8808 121.993Z" fill="#EAEEF9"/>
<path d="M121.29 54.7407V102.719C121.29 102.922 121.29 103.023 121.29 103.226C121.188 105.965 119.866 108.399 117.933 110.022C116.204 111.544 113.966 112.457 111.525 112.457H34.1165C32.3873 112.457 30.8615 112.051 29.4374 111.239C28.8271 110.935 28.2167 110.529 27.7082 110.022C26.5892 109.109 25.6738 107.892 25.1652 106.472C24.7583 105.458 24.4531 104.443 24.4531 103.328V54.7407C24.4531 54.7407 28.5219 51.2919 34.3199 46.5245C40.3214 41.4528 48.2555 34.9611 55.1724 29.1793C59.1395 25.832 58.7326 26.2377 64.8358 21.0646C69.5149 17.1087 76.3301 17.1087 81.0092 21.0646C82.2299 22.0789 83.4505 23.1947 84.6711 24.2091C87.2141 26.2377 90.0623 28.6722 93.0121 31.1066C99.217 36.2797 106.032 41.96 111.423 46.4231C116.916 50.9876 120.883 54.335 121.29 54.7407Z" fill="url(#paint0_linear_19_5916)"/>
<path d="M108.067 32.73V62.9573L92.6053 72.1878L88.028 74.9265L78.2629 80.7083L73.6855 83.447L71.7528 84.5627L69.9219 83.447L65.5479 80.7083L56.2914 74.9265L51.9175 72.1878L37.6768 63.2616V32.73C37.6768 29.5855 40.2197 26.9482 43.4748 26.9482H102.269C105.422 26.9482 108.067 29.5855 108.067 32.73Z" fill="white"/>
<path d="M121.29 54.7402V103.226C121.188 105.964 119.866 108.399 117.933 110.022C116.204 111.543 113.966 112.456 111.525 112.456H34.1165C32.3873 112.456 30.8615 112.05 29.4374 111.239C28.8271 110.935 28.2167 110.529 27.7082 110.022C26.5892 109.109 25.6738 107.892 25.1652 106.472C24.7583 105.457 24.4531 104.443 24.4531 103.327V103.226V54.7402L67.7857 81.8231L71.5493 84.1561L72.8717 83.3446L74.0923 82.6346L121.29 54.7402Z" fill="#738DFF"/>
<path d="M118.035 110.022C116.306 111.543 114.068 112.456 111.627 112.456H34.1165C32.3873 112.456 30.8615 112.05 29.4374 111.239C28.8271 110.935 28.2167 110.529 27.7082 110.022C26.5892 109.109 25.6738 107.892 25.1652 106.472C24.7583 105.457 24.4531 104.443 24.4531 103.327V103.226V54.7402L29.5391 57.7833L72.8717 83.4461L74.0923 84.1561L74.194 84.2575L113.051 107.182L118.035 110.022Z" fill="url(#paint1_linear_19_5916)"/>
<path d="M74.0931 82.6354V85.9827L29.4382 111.24C28.8279 110.935 28.2176 110.53 27.709 110.023C26.5901 109.11 25.6746 107.892 25.166 106.472L68.6003 80.8096L72.3639 83.1426L72.8725 83.3454L74.0931 82.6354Z" fill="url(#paint2_linear_19_5916)"/>
<path d="M24.4531 54.7402L72.8717 83.4461" stroke="#A6BDFF" stroke-width="0.494612" stroke-miterlimit="10"/>
<path d="M121.29 54.7402V103.226C121.188 105.964 119.866 108.399 117.933 110.022C116.204 111.543 113.966 112.456 111.525 112.456H34.1163C32.3871 112.456 30.8613 112.05 29.4372 111.239C28.8269 110.935 28.2166 110.529 27.708 110.022L32.6923 107.08L71.5492 84.1561L72.8715 83.3446L74.0921 82.6346L116.204 57.6818L121.29 54.7402Z" fill="url(#paint3_linear_19_5916)"/>
<path d="M121.29 54.7402L74.0921 82.6346L72.8715 83.3446L71.5492 84.1561L27.708 110.022" stroke="#99B3FF" stroke-width="0.494612" stroke-miterlimit="10"/>
<path d="M125.988 50.1768C128.123 50.1768 129.854 48.451 129.854 46.3223C129.854 44.1935 128.123 42.4678 125.988 42.4678C123.854 42.4678 122.123 44.1935 122.123 46.3223C122.123 48.451 123.854 50.1768 125.988 50.1768Z" fill="#EAEEF9"/>
<path d="M24.3692 36.0776C25.7736 36.0776 26.9122 34.9422 26.9122 33.5417C26.9122 32.1412 25.7736 31.0059 24.3692 31.0059C22.9647 31.0059 21.8262 32.1412 21.8262 33.5417C21.8262 34.9422 22.9647 36.0776 24.3692 36.0776Z" fill="#EAEEF9"/>
<path d="M12.8767 42.5689C13.8317 42.5689 14.6059 41.7968 14.6059 40.8445C14.6059 39.8921 13.8317 39.1201 12.8767 39.1201C11.9217 39.1201 11.1475 39.8921 11.1475 40.8445C11.1475 41.7968 11.9217 42.5689 12.8767 42.5689Z" fill="#EAEEF9"/>
<path d="M121.512 33.8465C122.411 33.8465 123.14 33.1199 123.14 32.2235C123.14 31.3272 122.411 30.6006 121.512 30.6006C120.613 30.6006 119.885 31.3272 119.885 32.2235C119.885 33.1199 120.613 33.8465 121.512 33.8465Z" fill="#EAEEF9"/>
<path d="M131.48 86.8201C132.379 86.8201 133.108 86.0935 133.108 85.1972C133.108 84.3008 132.379 83.5742 131.48 83.5742C130.581 83.5742 129.853 84.3008 129.853 85.1972C129.853 86.0935 130.581 86.8201 131.48 86.8201Z" fill="#EAEEF9"/>
<path d="M115.002 111.445L118.155 109.822C118.054 109.924 118.054 109.924 117.952 110.025C117.952 110.025 117.952 110.025 117.85 110.025L115.002 111.445Z" fill="#526DFF"/>
<g filter="url(#filter0_d_19_5916)">
<circle cx="73.2" cy="53.3572" r="13.5389" fill="url(#paint4_linear_19_5916)"/>
</g>
<g filter="url(#filter1_d_19_5916)">
<path fill-rule="evenodd" clip-rule="evenodd" d="M79.6545 48.8628C80.0719 49.2776 80.0719 49.95 79.6545 50.3648L71.8162 58.1531C71.3988 58.5678 70.722 58.5678 70.3046 58.1531L66.7418 54.6129C66.3244 54.1982 66.3244 53.5257 66.7418 53.111C67.1592 52.6962 67.8359 52.6962 68.2534 53.111L71.0604 55.9001L78.1429 48.8628C78.5603 48.4481 79.2371 48.4481 79.6545 48.8628Z" fill="white"/>
</g>
<ellipse cx="46.9278" cy="46.4204" rx="3.94536" ry="3.93798" fill="url(#paint5_linear_19_5916)"/>
<ellipse cx="84.457" cy="36.797" rx="1.51269" ry="1.50986" fill="#FFD855"/>
<ellipse cx="101.561" cy="56.6382" rx="4.50898" ry="4.50055" fill="url(#paint6_linear_19_5916)"/>
<ellipse cx="59.5148" cy="71.9838" rx="2.45812" ry="2.45353" fill="url(#paint7_linear_19_5916)"/>
<ellipse cx="52.5222" cy="77.8365" rx="1.13452" ry="1.1324" fill="url(#paint8_linear_19_5916)"/>
<ellipse cx="95.0447" cy="31.1364" rx="2.64721" ry="2.64226" fill="url(#paint9_linear_19_5916)"/>
<ellipse cx="79.2853" cy="27.6195" rx="2.5363" ry="2.53156" fill="url(#paint10_linear_19_5916)"/>
<ellipse cx="75.341" cy="78.8148" rx="2.5363" ry="2.53156" fill="url(#paint11_linear_19_5916)"/>
<ellipse cx="56.9974" cy="34.1897" rx="2.63993" ry="2.635" fill="url(#paint12_linear_19_5916)"/>
<path d="M92.8942 44.3716C95.1195 45.1135 100.357 44.8781 103.507 38.0017C106.656 31.1252 112.274 31.4522 114.69 32.4752" stroke="url(#paint13_linear_19_5916)" stroke-width="1.12724" stroke-linecap="round"/>
<path d="M40.2086 56.8654C35.1034 58.3782 31.6998 56.1091 31.0966 52.7072" stroke="url(#paint14_linear_19_5916)" stroke-width="1.12724" stroke-linecap="round"/>
<path d="M45.6736 66.7715C43.9719 69.0405 38.6144 73.2004 35.8412 72.0659C31.6813 70.3641 36.4084 63.3679 40.0011 69.4187C43.5937 75.4695 35.0848 82.4656 26.9541 76.0367" stroke="url(#paint15_linear_19_5916)" stroke-width="1.12724" stroke-linecap="round"/>
<path d="M86.3491 70.515C90.504 68.9648 95.2313 72.1793 94.664 78.041" stroke="url(#paint16_linear_19_5916)" stroke-width="1.12724" stroke-linecap="round"/>
<defs>
<filter id="filter0_d_19_5916" x="51.4411" y="33.8528" width="43.5182" height="43.5182" filterUnits="userSpaceOnUse" color-interpolation-filters="sRGB">
<feFlood flood-opacity="0" result="BackgroundImageFix"/>
<feColorMatrix in="SourceAlpha" type="matrix" values="0 0 0 0 0 0 0 0 0 0 0 0 0 0 0 0 0 0 127 0" result="hardAlpha"/>
<feOffset dy="2.25449"/>
<feGaussianBlur stdDeviation="4.11001"/>
<feComposite in2="hardAlpha" operator="out"/>
<feColorMatrix type="matrix" values="0 0 0 0 0.254902 0 0 0 0 0.74902 0 0 0 0 0.258824 0 0 0 0.4 0"/>
<feBlend mode="normal" in2="BackgroundImageFix" result="effect1_dropShadow_19_5916"/>
<feBlend mode="normal" in="SourceGraphic" in2="effect1_dropShadow_19_5916" result="shape"/>
</filter>
<filter id="filter1_d_19_5916" x="65.6724" y="48.5518" width="15.0518" height="11.4248" filterUnits="userSpaceOnUse" color-interpolation-filters="sRGB">
<feFlood flood-opacity="0" result="BackgroundImageFix"/>
<feColorMatrix in="SourceAlpha" type="matrix" values="0 0 0 0 0 0 0 0 0 0 0 0 0 0 0 0 0 0 127 0" result="hardAlpha"/>
<feOffset dy="0.756345"/>
<feGaussianBlur stdDeviation="0.378172"/>
<feComposite in2="hardAlpha" operator="out"/>
<feColorMatrix type="matrix" values="0 0 0 0 0 0 0 0 0 0 0 0 0 0 0 0 0 0 0.1 0"/>
<feBlend mode="normal" in2="BackgroundImageFix" result="effect1_dropShadow_19_5916"/>
<feBlend mode="normal" in="SourceGraphic" in2="effect1_dropShadow_19_5916" result="shape"/>
</filter>
<linearGradient id="paint0_linear_19_5916" x1="88.7816" y1="82.3972" x2="107.234" y2="-6.86356" gradientUnits="userSpaceOnUse">
<stop stop-color="#104EA8"/>
<stop offset="1" stop-color="#D3E7FF"/>
</linearGradient>
<linearGradient id="paint1_linear_19_5916" x1="110.248" y1="120.003" x2="85.9841" y2="26.2235" gradientUnits="userSpaceOnUse">
<stop stop-color="#3079E4"/>
<stop offset="1" stop-color="#D3E7FF"/>
</linearGradient>
<linearGradient id="paint2_linear_19_5916" x1="52.4336" y1="98.8196" x2="48.6405" y2="93.268" gradientUnits="userSpaceOnUse">
<stop stop-color="#4F6AFF"/>
<stop offset="1" stop-color="#657EFF" stop-opacity="0"/>
</linearGradient>
<linearGradient id="paint3_linear_19_5916" x1="113.503" y1="120.003" x2="89.239" y2="26.2235" gradientUnits="userSpaceOnUse">
<stop stop-color="#3079E4"/>
<stop offset="1" stop-color="#D3E7FF"/>
</linearGradient>
<linearGradient id="paint4_linear_19_5916" x1="75.6176" y1="67.5005" x2="68.6013" y2="39.789" gradientUnits="userSpaceOnUse">
<stop stop-color="#3CAE3D"/>
<stop offset="1" stop-color="#48E049"/>
</linearGradient>
<linearGradient id="paint5_linear_19_5916" x1="46.9278" y1="42.4824" x2="49.7726" y2="52.0376" gradientUnits="userSpaceOnUse">
<stop stop-color="#52DC53"/>
<stop offset="1" stop-color="#64C764" stop-opacity="0"/>
<stop offset="1" stop-color="white"/>
</linearGradient>
<linearGradient id="paint6_linear_19_5916" x1="101.561" y1="52.1377" x2="105.108" y2="68.0109" gradientUnits="userSpaceOnUse">
<stop stop-color="#A2ABFF"/>
<stop offset="1" stop-color="white"/>
</linearGradient>
<linearGradient id="paint7_linear_19_5916" x1="59.5148" y1="69.5303" x2="61.4485" y2="78.1837" gradientUnits="userSpaceOnUse">
<stop stop-color="#FFD855"/>
<stop offset="1" stop-color="#FFD855" stop-opacity="0"/>
</linearGradient>
<linearGradient id="paint8_linear_19_5916" x1="52.5222" y1="76.7041" x2="53.4147" y2="80.698" gradientUnits="userSpaceOnUse">
<stop stop-color="#FFD855"/>
<stop offset="1" stop-color="#FFD855" stop-opacity="0"/>
</linearGradient>
<linearGradient id="paint9_linear_19_5916" x1="95.0447" y1="28.4941" x2="97.1271" y2="37.8132" gradientUnits="userSpaceOnUse">
<stop stop-color="#A2ABFF"/>
<stop offset="1" stop-color="#E2E5FF"/>
</linearGradient>
<linearGradient id="paint10_linear_19_5916" x1="79.2853" y1="25.0879" x2="81.1142" y2="31.2305" gradientUnits="userSpaceOnUse">
<stop stop-color="#52DC53"/>
<stop offset="1" stop-color="white"/>
</linearGradient>
<linearGradient id="paint11_linear_19_5916" x1="75.341" y1="76.2832" x2="77.1698" y2="82.4258" gradientUnits="userSpaceOnUse">
<stop stop-color="#52DC53"/>
<stop offset="1" stop-color="white"/>
</linearGradient>
<linearGradient id="paint12_linear_19_5916" x1="56.9974" y1="31.5547" x2="58.9009" y2="37.9483" gradientUnits="userSpaceOnUse">
<stop stop-color="#52DC53"/>
<stop offset="1" stop-color="white"/>
</linearGradient>
<linearGradient id="paint13_linear_19_5916" x1="113.083" y1="29.5349" x2="88.8452" y2="46.2191" gradientUnits="userSpaceOnUse">
<stop stop-color="#FA84A7"/>
<stop offset="1" stop-color="#FFB0C8" stop-opacity="0.56"/>
</linearGradient>
<linearGradient id="paint14_linear_19_5916" x1="30.3096" y1="55.963" x2="59.3588" y2="59.8997" gradientUnits="userSpaceOnUse">
<stop stop-color="#FA84A7"/>
<stop offset="1" stop-color="#FFB0C8" stop-opacity="0.56"/>
</linearGradient>
<linearGradient id="paint15_linear_19_5916" x1="51.3462" y1="66.0152" x2="14.2821" y2="65.4856" gradientUnits="userSpaceOnUse">
<stop stop-color="#647AC8"/>
<stop offset="1" stop-color="#F7F7FF"/>
</linearGradient>
<linearGradient id="paint16_linear_19_5916" x1="88.2488" y1="67.7547" x2="90.8569" y2="88.5538" gradientUnits="userSpaceOnUse">
<stop stop-color="#FFDD68"/>
<stop offset="1" stop-color="#FFF4CF"/>
</linearGradient>
</defs>
</svg>
