<svg width="140" height="140" viewBox="0 0 140 140" fill="none" xmlns="http://www.w3.org/2000/svg">
<path d="M72.3798 121.992C100.3 121.992 122.934 99.4219 122.934 71.5797C122.934 43.7375 100.3 21.167 72.3798 21.167C44.4593 21.167 21.8252 43.7375 21.8252 71.5797C21.8252 99.4219 44.4593 121.992 72.3798 121.992Z" fill="#EAEEF9"/>
<path d="M120.791 54.7407V102.719C120.791 102.922 120.791 103.023 120.791 103.226C120.689 105.965 119.367 108.399 117.434 110.022C115.705 111.544 113.467 112.457 111.026 112.457H33.6175C31.8882 112.457 30.3624 112.051 28.9384 111.239C28.328 110.935 27.7177 110.529 27.2091 110.022C26.0902 109.109 25.1747 107.892 24.6661 106.472C24.2593 105.458 23.9541 104.443 23.9541 103.328V54.7407C23.9541 54.7407 28.0229 51.2919 33.8209 46.5245C39.8224 41.4528 47.7565 34.9611 54.6734 29.1793C58.6405 25.832 58.2336 26.2377 64.3368 21.0646C69.0159 17.1087 75.8311 17.1087 80.5102 21.0646C81.7308 22.0789 82.9515 23.1947 84.1721 24.2091C86.7151 26.2377 89.5632 28.6722 92.5131 31.1066C98.718 36.2797 105.533 41.96 110.924 46.4231C116.417 50.9876 120.384 54.335 120.791 54.7407Z" fill="url(#paint0_linear_19_5959)"/>
<path d="M107.569 32.729V62.9563L92.1073 72.1868L87.5299 74.9255L77.7648 80.7073L73.1875 83.446L71.2548 84.5618L69.4238 83.446L65.0499 80.7073L55.7934 74.9255L51.4195 72.1868L37.1787 63.2606V32.729C37.1787 29.5845 39.7217 26.9473 42.9767 26.9473H101.771C104.924 26.9473 107.569 29.5845 107.569 32.729Z" fill="white"/>
<path d="M120.791 54.7402V103.226C120.689 105.964 119.367 108.399 117.434 110.022C115.705 111.543 113.467 112.456 111.026 112.456H33.6175C31.8882 112.456 30.3624 112.05 28.9384 111.239C28.328 110.935 27.7177 110.529 27.2091 110.022C26.0902 109.109 25.1747 107.892 24.6661 106.472C24.2593 105.457 23.9541 104.443 23.9541 103.327V103.226V54.7402L67.2867 81.8231L71.0503 84.1561L72.3726 83.3446L73.5933 82.6346L120.791 54.7402Z" fill="#738DFF"/>
<path d="M117.536 110.022C115.807 111.543 113.569 112.456 111.128 112.456H33.6175C31.8882 112.456 30.3624 112.05 28.9384 111.239C28.328 110.935 27.7177 110.529 27.2091 110.022C26.0902 109.109 25.1747 107.892 24.6661 106.472C24.2593 105.457 23.9541 104.443 23.9541 103.327V103.226V54.7402L29.0401 57.7833L72.3726 83.4461L73.5933 84.1561L73.695 84.2575L112.552 107.182L117.536 110.022Z" fill="url(#paint1_linear_19_5959)"/>
<path d="M73.5931 82.6354V85.9827L28.9382 111.24C28.3279 110.935 27.7176 110.53 27.209 110.023C26.0901 109.11 25.1746 107.892 24.666 106.472L68.1003 80.8096L71.8639 83.1426L72.3725 83.3454L73.5931 82.6354Z" fill="url(#paint2_linear_19_5959)"/>
<path d="M23.9541 54.7402L72.3726 83.4461" stroke="#A6BDFF" stroke-width="0.494612" stroke-miterlimit="10"/>
<path d="M120.791 54.7402V103.226C120.689 105.964 119.367 108.399 117.434 110.022C115.705 111.543 113.467 112.456 111.026 112.456H33.6173C31.8881 112.456 30.3623 112.05 28.9382 111.239C28.3279 110.935 27.7176 110.529 27.209 110.022L32.1932 107.08L71.0501 84.1561L72.3725 83.3446L73.5931 82.6346L115.705 57.6818L120.791 54.7402Z" fill="url(#paint3_linear_19_5959)"/>
<path d="M120.791 54.7402L73.5931 82.6346L72.3725 83.3446L71.0501 84.1561L27.209 110.022" stroke="#99B3FF" stroke-width="0.494612" stroke-miterlimit="10"/>
<path d="M125.487 50.1768C127.622 50.1768 129.353 48.451 129.353 46.3223C129.353 44.1935 127.622 42.4678 125.487 42.4678C123.353 42.4678 121.622 44.1935 121.622 46.3223C121.622 48.451 123.353 50.1768 125.487 50.1768Z" fill="#EAEEF9"/>
<path d="M23.8701 36.0785C25.2746 36.0785 26.4131 34.9432 26.4131 33.5427C26.4131 32.1422 25.2746 31.0068 23.8701 31.0068C22.4657 31.0068 21.3271 32.1422 21.3271 33.5427C21.3271 34.9432 22.4657 36.0785 23.8701 36.0785Z" fill="#EAEEF9"/>
<path d="M12.3757 42.5698C13.3307 42.5698 14.105 41.7978 14.105 40.8455C14.105 39.8931 13.3307 39.1211 12.3757 39.1211C11.4207 39.1211 10.6465 39.8931 10.6465 40.8455C10.6465 41.7978 11.4207 42.5698 12.3757 42.5698Z" fill="#EAEEF9"/>
<path d="M121.012 33.8475C121.911 33.8475 122.64 33.1208 122.64 32.2245C122.64 31.3282 121.911 30.6016 121.012 30.6016C120.113 30.6016 119.385 31.3282 119.385 32.2245C119.385 33.1208 120.113 33.8475 121.012 33.8475Z" fill="#EAEEF9"/>
<path d="M130.981 86.8201C131.88 86.8201 132.609 86.0935 132.609 85.1972C132.609 84.3008 131.88 83.5742 130.981 83.5742C130.082 83.5742 129.354 84.3008 129.354 85.1972C129.354 86.0935 130.082 86.8201 130.981 86.8201Z" fill="#EAEEF9"/>
<path d="M114.503 111.444L117.656 109.821C117.555 109.923 117.555 109.923 117.453 110.024C117.453 110.024 117.453 110.024 117.351 110.024L114.503 111.444Z" fill="#526DFF"/>
<g filter="url(#filter0_d_19_5959)">
<circle cx="72.5743" cy="53.0752" r="12.0752" fill="url(#paint4_linear_19_5959)"/>
<circle cx="72.5743" cy="53.0752" r="12.2899" stroke="url(#paint5_linear_19_5959)" stroke-width="0.429321"/>
</g>
<g filter="url(#filter1_d_19_5959)">
<path d="M75.1999 49.2321C75.5367 48.8954 76.0828 48.8953 76.4196 49.2321C76.7564 49.5689 76.7563 50.115 76.4196 50.4518L73.7946 53.0759L76.4196 55.7009C76.7563 56.0377 76.7564 56.5838 76.4196 56.9206C76.0828 57.2574 75.5367 57.2573 75.1999 56.9206L72.5749 54.2956L69.9509 56.9206C69.614 57.2574 69.068 57.2574 68.7311 56.9206C68.3943 56.5838 68.3943 56.0377 68.7311 55.7009L71.3552 53.0759L68.7311 50.4518C68.3943 50.115 68.3943 49.569 68.7311 49.2321C69.068 48.8953 69.614 48.8953 69.9509 49.2321L72.5749 51.8561L75.1999 49.2321Z" fill="white"/>
</g>
<path d="M53.6845 35.5523C53.5069 35.0167 53.9501 34.4795 54.5097 34.5522L59.0358 35.1395C59.633 35.217 59.9111 35.9216 59.5279 36.386L56.4379 40.1309C56.0546 40.5954 55.31 40.4561 55.1205 39.8846L53.6845 35.5523Z" fill="url(#paint6_linear_19_5959)"/>
<path d="M46.5258 46.7323C46.3339 46.5255 46.424 46.1892 46.6936 46.1061L49.1296 45.3551C49.4174 45.2664 49.6901 45.5292 49.6122 45.82L48.9104 48.4394C48.8324 48.7302 48.4648 48.8214 48.26 48.6007L46.5258 46.7323Z" fill="url(#paint7_linear_19_5959)"/>
<path d="M96.0755 48.5033C96.5713 48.7529 96.645 49.4306 96.2145 49.781L93.2088 52.2272C92.738 52.6103 92.03 52.3195 91.9643 51.7161L91.5087 47.5273C91.443 46.9239 92.072 46.4877 92.6141 46.7606L96.0755 48.5033Z" fill="url(#paint8_linear_19_5959)"/>
<path d="M91.5258 35.8266C91.8033 35.8281 91.987 36.1153 91.8721 36.3679L90.8332 38.6516C90.7075 38.9278 90.3258 38.955 90.1622 38.6993L88.6923 36.4014C88.5288 36.1458 88.7135 35.8106 89.017 35.8123L91.5258 35.8266Z" fill="url(#paint9_linear_19_5959)"/>
<path d="M98.0018 63.5015C97.9256 63.6343 97.8287 63.754 97.715 63.856L95.8741 65.4802C95.6931 65.6403 95.4746 65.7502 95.2406 65.7989C95.0066 65.8476 94.7654 65.8334 94.5411 65.7577L92.2638 64.9872C92.0401 64.9101 91.8413 64.7749 91.6871 64.595C91.5328 64.415 91.4283 64.1965 91.384 63.961L90.9469 61.5637C90.9042 61.328 90.9237 61.0837 91.0034 60.8554C91.083 60.6271 91.22 60.4227 91.4007 60.2626L93.241 58.6358C93.4223 58.4765 93.6406 58.3672 93.8744 58.3188C94.1081 58.2704 94.349 58.2846 94.573 58.3599L96.852 59.1313C97.076 59.2073 97.2751 59.342 97.4293 59.522C97.5834 59.7019 97.6872 59.9208 97.7301 60.1566L98.1673 62.5539C98.2262 62.8773 98.1675 63.2137 98.0018 63.5015ZM94.9664 64.2978L96.6914 62.7822L96.2813 60.5428L94.1526 59.8226L92.4275 61.3381L92.8386 63.5759L94.9664 64.2978Z" fill="url(#paint10_linear_19_5959)"/>
<path d="M77.4091 70.2333C77.3757 70.2915 77.3525 70.355 77.3403 70.4214L77.1536 71.49C77.1351 71.5951 77.1454 71.7043 77.1835 71.8064C77.2216 71.9085 77.2862 72 77.3707 72.0718L78.2294 72.8C78.3143 72.8712 78.4159 72.9203 78.5241 72.9423C78.6324 72.9644 78.7436 72.9586 78.8468 72.9257L79.8934 72.5851C79.9962 72.5514 80.0872 72.4916 80.1573 72.4117C80.2273 72.3317 80.2739 72.2343 80.2925 72.1293L80.4804 71.0604C80.4986 70.9553 80.488 70.8464 80.4498 70.7444C80.4117 70.6424 80.3472 70.551 80.2629 70.4793L79.4034 69.7507C79.3189 69.679 79.2174 69.6298 79.1092 69.6078C79.0009 69.5858 78.8898 69.5918 78.7868 69.6254L77.7402 69.966C77.599 70.012 77.4815 70.1069 77.4091 70.2333ZM77.839 71.5933L78.0114 70.5933L78.9896 70.2758L79.7923 70.9565L79.6199 71.9564L78.6421 72.2732L77.839 71.5933Z" fill="url(#paint11_linear_19_5959)"/>
<path d="M51.3438 61.9202C51.1659 61.9178 50.9895 61.8862 50.8218 61.8267L48.1323 60.8482C47.8675 60.7521 47.6325 60.5879 47.451 60.3719C47.2694 60.1559 47.1477 59.8958 47.0981 59.6176L46.5957 56.7924C46.5479 56.5141 46.5731 56.2281 46.6689 55.9625C46.7646 55.6969 46.9277 55.4609 47.142 55.2778L49.3314 53.4289C49.5469 53.2474 49.8061 53.1259 50.083 53.0764C50.36 53.0269 50.645 53.0512 50.9097 53.1469L53.6014 54.1232C53.8655 54.22 54.0998 54.3845 54.2809 54.6004C54.462 54.8163 54.5835 55.076 54.6334 55.3537L55.1357 58.1811C55.185 58.4592 55.1604 58.7453 55.0646 59.0108C54.9687 59.2763 54.8048 59.5118 54.5894 59.6936L52.4001 61.5425C52.1048 61.7919 51.7297 61.926 51.3438 61.9202ZM48.8216 59.2136L51.3352 60.1343L53.3793 58.4052L52.9098 55.7644L50.3962 54.8437L48.3543 56.5728L48.8216 59.2136Z" fill="url(#paint12_linear_19_5959)"/>
<path d="M58.9861 73.1245C58.4624 73.3862 57.8506 72.9871 57.8791 72.4023L58.0811 68.2597C58.1099 67.669 58.7689 67.3326 59.2642 67.6557L62.7723 69.9442C63.2675 70.2673 63.2252 71.006 62.6962 71.2704L58.9861 73.1245Z" fill="url(#paint13_linear_19_5959)"/>
<path d="M75.7619 35.1499C75.6789 35.0717 75.6088 34.9808 75.5546 34.8807L74.6956 33.2657C74.6109 33.1069 74.569 32.9295 74.5741 32.7515C74.5793 32.5735 74.6313 32.4011 74.7249 32.2516L75.677 30.7343C75.7715 30.5855 75.9038 30.4648 76.0609 30.3841C76.218 30.3034 76.3944 30.2654 76.5728 30.274L78.3859 30.3716C78.5641 30.3814 78.7378 30.4378 78.8895 30.535C79.0412 30.6322 79.1657 30.7668 79.2505 30.9255L80.1114 32.5404C80.1956 32.6994 80.237 32.8765 80.2317 33.0543C80.2264 33.232 80.1744 33.4042 80.0811 33.5535L79.1281 35.0719C79.0343 35.2212 78.9023 35.3422 78.7452 35.4228C78.5881 35.5034 78.4115 35.5408 78.2332 35.5312L76.4201 35.4336C76.1756 35.4204 75.9418 35.3197 75.7619 35.1499ZM75.7095 32.8122L76.5097 34.3245L78.2037 34.4143L79.0937 32.996L78.2934 31.4837L76.6005 31.3949L75.7095 32.8122Z" fill="url(#paint14_linear_19_5959)"/>
<defs>
<filter id="filter0_d_19_5959" x="50.0067" y="31.8494" width="45.135" height="45.135" filterUnits="userSpaceOnUse" color-interpolation-filters="sRGB">
<feFlood flood-opacity="0" result="BackgroundImageFix"/>
<feColorMatrix in="SourceAlpha" type="matrix" values="0 0 0 0 0 0 0 0 0 0 0 0 0 0 0 0 0 0 127 0" result="hardAlpha"/>
<feOffset dy="1.34168"/>
<feGaussianBlur stdDeviation="5.03131"/>
<feComposite in2="hardAlpha" operator="out"/>
<feColorMatrix type="matrix" values="0 0 0 0 0.979167 0 0 0 0 0.711528 0 0 0 0 0.652778 0 0 0 1 0"/>
<feBlend mode="normal" in2="BackgroundImageFix" result="effect1_dropShadow_19_5959"/>
<feBlend mode="normal" in="SourceGraphic" in2="effect1_dropShadow_19_5959" result="shape"/>
</filter>
<filter id="filter1_d_19_5959" x="67.6199" y="48.9795" width="9.91064" height="9.91064" filterUnits="userSpaceOnUse" color-interpolation-filters="sRGB">
<feFlood flood-opacity="0" result="BackgroundImageFix"/>
<feColorMatrix in="SourceAlpha" type="matrix" values="0 0 0 0 0 0 0 0 0 0 0 0 0 0 0 0 0 0 127 0" result="hardAlpha"/>
<feOffset dy="0.858642"/>
<feGaussianBlur stdDeviation="0.429321"/>
<feComposite in2="hardAlpha" operator="out"/>
<feColorMatrix type="matrix" values="0 0 0 0 0 0 0 0 0 0 0 0 0 0 0 0 0 0 0.1 0"/>
<feBlend mode="normal" in2="BackgroundImageFix" result="effect1_dropShadow_19_5959"/>
<feBlend mode="normal" in="SourceGraphic" in2="effect1_dropShadow_19_5959" result="shape"/>
</filter>
<linearGradient id="paint0_linear_19_5959" x1="88.2826" y1="82.3972" x2="106.735" y2="-6.86356" gradientUnits="userSpaceOnUse">
<stop stop-color="#104EA8"/>
<stop offset="1" stop-color="#D3E7FF"/>
</linearGradient>
<linearGradient id="paint1_linear_19_5959" x1="109.749" y1="120.003" x2="85.4851" y2="26.2235" gradientUnits="userSpaceOnUse">
<stop stop-color="#3079E4"/>
<stop offset="1" stop-color="#D3E7FF"/>
</linearGradient>
<linearGradient id="paint2_linear_19_5959" x1="51.9336" y1="98.8196" x2="48.1405" y2="93.268" gradientUnits="userSpaceOnUse">
<stop stop-color="#4F6AFF"/>
<stop offset="1" stop-color="#657EFF" stop-opacity="0"/>
</linearGradient>
<linearGradient id="paint3_linear_19_5959" x1="113.004" y1="120.003" x2="88.74" y2="26.2235" gradientUnits="userSpaceOnUse">
<stop stop-color="#3079E4"/>
<stop offset="1" stop-color="#D3E7FF"/>
</linearGradient>
<linearGradient id="paint4_linear_19_5959" x1="74.7305" y1="65.6895" x2="68.4728" y2="40.9739" gradientUnits="userSpaceOnUse">
<stop stop-color="#DA3A31"/>
<stop offset="1" stop-color="#F09B96"/>
</linearGradient>
<linearGradient id="paint5_linear_19_5959" x1="64.596" y1="43.0485" x2="81.8463" y2="65.7974" gradientUnits="userSpaceOnUse">
<stop stop-color="#F0A5A1"/>
<stop offset="0.484375" stop-color="#FF4841"/>
<stop offset="1" stop-color="#FFC1C1"/>
</linearGradient>
<linearGradient id="paint6_linear_19_5959" x1="58.0531" y1="38.0181" x2="47.3646" y2="28.7665" gradientUnits="userSpaceOnUse">
<stop stop-color="#ECE5E5"/>
<stop offset="1" stop-color="#F5F5F5" stop-opacity="0"/>
</linearGradient>
<linearGradient id="paint7_linear_19_5959" x1="49.242" y1="46.9965" x2="41.9542" y2="44.8583" gradientUnits="userSpaceOnUse">
<stop stop-color="#ECE5E5"/>
<stop offset="1" stop-color="#F5F5F5" stop-opacity="0"/>
</linearGradient>
<linearGradient id="paint8_linear_19_5959" x1="91.7154" y1="49.4362" x2="102.395" y2="49.4914" gradientUnits="userSpaceOnUse">
<stop stop-color="#E2E2E2"/>
<stop offset="0.15625" stop-color="#ECECEC" stop-opacity="0.528187"/>
<stop offset="1" stop-color="#F5F5F5" stop-opacity="0"/>
<stop offset="1" stop-color="#F5F5F5" stop-opacity="0.83"/>
</linearGradient>
<linearGradient id="paint9_linear_19_5959" x1="89.5383" y1="37.6275" x2="95.8921" y2="33.765" gradientUnits="userSpaceOnUse">
<stop stop-color="#ECE5E5"/>
<stop offset="1" stop-color="#F5F5F5" stop-opacity="0"/>
</linearGradient>
<linearGradient id="paint10_linear_19_5959" x1="98.6224" y1="62.7216" x2="86.7011" y2="60.866" gradientUnits="userSpaceOnUse">
<stop stop-color="#FF8180"/>
<stop offset="1" stop-color="white" stop-opacity="0.75"/>
</linearGradient>
<linearGradient id="paint11_linear_19_5959" x1="77.5632" y1="69.8234" x2="81.0028" y2="74.2572" gradientUnits="userSpaceOnUse">
<stop stop-color="#FF8180"/>
<stop offset="1" stop-color="white" stop-opacity="0.75"/>
</linearGradient>
<linearGradient id="paint12_linear_19_5959" x1="52.4866" y1="62.1151" x2="47.3969" y2="48.6845" gradientUnits="userSpaceOnUse">
<stop stop-color="#FF8180"/>
<stop offset="1" stop-color="white" stop-opacity="0.75"/>
</linearGradient>
<linearGradient id="paint13_linear_19_5959" x1="60.7927" y1="68.7668" x2="53.047" y2="80.0077" gradientUnits="userSpaceOnUse">
<stop stop-color="#ECE5E5"/>
<stop offset="1" stop-color="#F5F5F5" stop-opacity="0"/>
</linearGradient>
<linearGradient id="paint14_linear_19_5959" x1="76.2199" y1="35.7345" x2="79.6255" y2="27.4149" gradientUnits="userSpaceOnUse">
<stop stop-color="#FF8180"/>
<stop offset="1" stop-color="white" stop-opacity="0.75"/>
</linearGradient>
</defs>
</svg>
