<svg width="65" height="64" viewBox="0 0 65 64" fill="none" xmlns="http://www.w3.org/2000/svg">
<rect x="0.5" width="64" height="64" rx="32" fill="#FDDADA"/>
<path fill-rule="evenodd" clip-rule="evenodd" d="M36.3214 35.8183C36.1267 36.013 35.8707 36.1117 35.6147 36.1117C35.3574 36.1117 35.1027 36.013 34.9067 35.8183L32.4987 33.409L30.0974 35.8103C29.7067 36.201 29.0734 36.201 28.6827 35.8103C28.2934 35.4197 28.2934 34.7877 28.6827 34.397L31.084 31.9957L28.6814 29.5917C28.2907 29.201 28.2907 28.569 28.6814 28.1783C29.072 27.7877 29.704 27.7877 30.0947 28.1783L32.4987 30.581L34.9 28.1797C35.2907 27.789 35.9227 27.789 36.3134 28.1797C36.704 28.569 36.704 29.2023 36.3134 29.593L33.912 31.9957L36.3214 34.4037C36.712 34.7943 36.712 35.4277 36.3214 35.8183ZM44.0894 25.6797L38.8214 20.4117C38.128 19.7157 37.2054 19.333 36.2214 19.333H28.78C27.8094 19.333 26.86 19.7263 26.18 20.4103L20.9107 25.6797C20.2267 26.3623 19.8334 27.309 19.8334 28.2783V35.7197C19.8334 36.689 20.2267 37.637 20.9107 38.321L26.18 43.589C26.8614 44.273 27.8094 44.6663 28.78 44.6663H36.2214C37.204 44.6663 38.1267 44.2837 38.82 43.589L44.0894 38.321C44.7734 37.6383 45.1667 36.689 45.1667 35.7197V28.2783C45.1667 27.2943 44.784 26.3717 44.0894 25.6797Z" fill="#F54444"/>
</svg>
