<svg width="65" height="64" viewBox="0 0 65 64" fill="none" xmlns="http://www.w3.org/2000/svg">
<rect x="0.5" width="64" height="64" rx="32" fill="#CCE3F2"/>
<path fill-rule="evenodd" clip-rule="evenodd" d="M33.508 36.9237C33.508 37.4757 33.06 37.9237 32.508 37.9237C31.956 37.9237 31.508 37.4757 31.508 36.9237V31.1917C31.508 30.6397 31.956 30.1917 32.508 30.1917C33.06 30.1917 33.508 30.6397 33.508 31.1917V36.9237ZM31.5 27.0543C31.5 26.5023 31.948 26.0543 32.5 26.0543C33.052 26.0543 33.5 26.5023 33.5 27.0543C33.5 27.6063 33.052 28.097 32.5 28.097C31.948 28.097 31.5 27.6903 31.5 27.1383V27.0543ZM32.5 19.333C25.516 19.333 19.8333 25.0143 19.8333 31.9997C19.8333 38.9837 25.516 44.6663 32.5 44.6663C39.484 44.6663 45.1666 38.9837 45.1666 31.9997C45.1666 25.0143 39.484 19.333 32.5 19.333Z" fill="#0072BC"/>
</svg>
